<svg xmlns="http://www.w3.org/2000/svg" xmlns:xlink="http://www.w3.org/1999/xlink" width="700" height="350" fill="#0000000D" viewBox="0 0 700 350"><defs><pattern id="g" width="350" height="350" patternUnits="userSpaceOnUse"><use x="-350" y="-350" xlink:href="#a"/><use y="-350" xlink:href="#a"/><use x="350" y="-350" xlink:href="#a"/><use x="-350" xlink:href="#a"/><use xlink:href="#a"/><use x="350" xlink:href="#a"/><use x="-350" y="350" xlink:href="#a"/><use y="350" xlink:href="#a"/><use x="350" y="350" xlink:href="#a"/></pattern><pattern id="h" width="350" height="350" patternUnits="userSpaceOnUse"><use x="-350" y="-350" xlink:href="#b"/><use y="-350" xlink:href="#b"/><use x="350" y="-350" xlink:href="#b"/><use x="-350" xlink:href="#b"/><use xlink:href="#b"/><use x="350" xlink:href="#b"/><use x="-350" y="350" xlink:href="#b"/><use y="350" xlink:href="#b"/><use x="350" y="350" xlink:href="#b"/></pattern><pattern id="i" width="350" height="350" patternUnits="userSpaceOnUse"><use x="-350" y="-350" xlink:href="#c"/><use y="-350" xlink:href="#c"/><use x="350" y="-350" xlink:href="#c"/><use x="-350" xlink:href="#c"/><use xlink:href="#c"/><use x="350" xlink:href="#c"/><use x="-350" y="350" xlink:href="#c"/><use y="350" xlink:href="#c"/><use x="350" y="350" xlink:href="#c"/></pattern><pattern id="j" width="350" height="350" patternUnits="userSpaceOnUse"><use x="-350" y="-350" xlink:href="#d"/><use y="-350" xlink:href="#d"/><use x="350" y="-350" xlink:href="#d"/><use x="-350" xlink:href="#d"/><use xlink:href="#d"/><use x="350" xlink:href="#d"/><use x="-350" y="350" xlink:href="#d"/><use y="350" xlink:href="#d"/><use x="350" y="350" xlink:href="#d"/></pattern><pattern id="k" width="350" height="350" patternUnits="userSpaceOnUse"><use x="-350" y="-350" xlink:href="#e"/><use y="-350" xlink:href="#e"/><use x="350" y="-350" xlink:href="#e"/><use x="-350" xlink:href="#e"/><use xlink:href="#e"/><use x="350" xlink:href="#e"/><use x="-350" y="350" xlink:href="#e"/><use y="350" xlink:href="#e"/><use x="350" y="350" xlink:href="#e"/></pattern><pattern id="l" width="350" height="350" patternUnits="userSpaceOnUse"><use x="-350" y="-350" xlink:href="#f"/><use y="-350" xlink:href="#f"/><use x="350" y="-350" xlink:href="#f"/><use x="-350" xlink:href="#f"/><use xlink:href="#f"/><use x="350" xlink:href="#f"/><use x="-350" y="350" xlink:href="#f"/><use y="350" xlink:href="#f"/><use x="350" y="350" xlink:href="#f"/></pattern><g id="a"><path d="M509.026 2.885A9.995 9.995 0 00498.642.583L83.289 148.68c-14.43-8.824-32.733-10.89-49.52-3.939-27.865 11.543-41.146 43.604-29.604 71.471 27.219 65.708 66.518 124.525 116.809 174.816s109.107 89.591 174.816 116.809a54.41 54.41 0 0020.861 4.164c21.475-.001 41.894-12.726 50.609-33.769 5.864-14.158 5.31-29.396-.299-42.48L511.462 13.238a10.002 10.002 0 00-2.436-10.353zM146.179 147.489l44.02-15.694a25.442 25.442 0 016.678 20.752c-.89 6.75-4.354 12.751-9.755 16.896s-12.089 5.936-18.844 5.049c-6.749-.889-12.749-4.352-16.894-9.754-3.819-4.977-5.636-11.049-5.205-17.249zm202.603 323.088c-7.322 17.678-27.664 26.103-45.338 18.779-128.04-53.035-227.763-152.759-280.8-280.799-3.547-8.563-3.547-17.994 0-26.558 3.547-8.563 10.216-15.232 18.779-18.779s17.995-3.547 26.558 0 15.232 10.216 18.779 18.779c22.701 54.807 55.481 103.865 97.429 145.813s91.006 74.727 145.813 97.429c17.678 7.321 26.103 27.66 18.78 45.336zm88.843-303.248a25.786 25.786 0 01-2.715-.192c-6.749-.889-12.749-4.353-16.893-9.754-4.145-5.401-5.938-12.094-5.05-18.843 1.835-13.934 14.66-23.776 28.599-21.944 4.3.566 8.337 2.234 11.78 4.771zm22.368-65.406a45.478 45.478 0 00-15.817-5.156c-24.871-3.283-47.764 14.294-51.038 39.163-1.586 12.046 1.614 23.989 9.011 33.629 7.125 9.285 17.325 15.351 28.831 17.201l-19.876 58.119-22.858-17.54c-4.381-3.36-10.66-2.536-14.021 1.846-3.362 4.382-2.535 10.659 1.846 14.021l28.205 21.642-51.694 151.155a54.475 54.475 0 00-14.922-9.241c-105.98-43.899-188.52-126.439-232.417-232.417a54.66 54.66 0 00-5.609-10.26l26.779-9.548c.935 8.068 4.032 15.764 9.105 22.375 7.396 9.64 18.105 15.822 30.151 17.407 2.018.266 4.03.398 6.032.398 9.948 0 19.572-3.25 27.597-9.407 9.641-7.398 15.822-18.105 17.409-30.153a45.412 45.412 0 00-6.768-30.401l124.307-44.322 4.711 11.374a10.005 10.005 0 009.243 6.176 9.98 9.98 0 003.823-.764c5.102-2.113 7.525-7.964 5.412-13.066l-4.326-10.445 132.719-47.322z" transform="matrix(.08848 -.06095 .06095 .08848 -26.256 187.953)"/><path d="M108 268.276c-.03-.047-.113-.174-.145-.22-3.062-4.593-9.259-5.826-13.854-2.767-4.587 3.054-5.831 9.253-2.795 13.848a9.995 9.995 0 0013.789 2.958c4.646-2.987 5.991-9.174 3.005-13.819zM92.791 243.433a473.307 473.307 0 01-26.036-53.147c-2.113-5.104-7.966-7.524-13.065-5.411-5.103 2.113-7.525 7.963-5.411 13.065a493.223 493.223 0 0027.14 55.401 9.997 9.997 0 0013.64 3.733c4.797-2.737 6.469-8.844 3.732-13.641zM312.933 127.987a45.819 45.819 0 00-5.983-.394c-22.717 0-42.087 17.005-45.055 39.555-3.274 24.868 14.293 47.764 39.161 51.038 1.982.262 3.995.394 5.983.394 22.716 0 42.086-17.005 45.055-39.557 3.273-24.867-14.294-47.762-39.161-51.036zm19.333 48.426c-1.664 12.637-12.509 22.166-25.227 22.166-1.118 0-2.253-.074-3.372-.222-13.935-1.835-23.777-14.664-21.943-28.599 1.664-12.636 12.508-22.164 25.226-22.164 1.118 0 2.253.074 3.372.222 13.934 1.836 23.778 14.664 21.944 28.597zM310.331 252.374a45.83 45.83 0 00-5.983-.394c-22.717 0-42.087 17.005-45.055 39.556-1.587 12.047 1.613 23.989 9.01 33.63 7.396 9.64 18.104 15.822 30.151 17.409 1.981.261 3.993.392 5.98.392 22.717 0 42.088-17.005 45.057-39.557 3.275-24.866-14.293-47.76-39.16-51.036zm19.333 48.427c-1.664 12.637-12.51 22.166-25.228 22.166a25.96 25.96 0 01-3.37-.222c-6.75-.89-12.75-4.354-16.895-9.755s-5.938-12.093-5.049-18.844c1.664-12.636 12.509-22.165 25.226-22.165 1.118 0 2.253.074 3.372.222 13.933 1.835 23.777 14.664 21.944 28.598zM244.375 210.946l-30.736-4.047c-5.473-.727-10.499 3.133-11.22 8.608-.722 5.476 3.133 10.499 8.608 11.22l30.736 4.047c.443.059.883.087 1.318.087 4.941 0 9.239-3.663 9.901-8.695.723-5.475-3.131-10.499-8.607-11.22zM228.79 284.743l-2.714-20.624c-.721-5.476-5.743-9.332-11.219-8.609-5.476.721-9.33 5.743-8.609 11.219l2.715 20.624c.662 5.033 4.959 8.696 9.901 8.696.435 0 .875-.028 1.317-.087 5.476-.721 9.33-5.743 8.609-11.219z" transform="matrix(.08848 -.06095 .06095 .08848 -26.256 187.953)"/></g><g id="b"><path d="M228.242 108.792l-48.176-12.909c-5.266-1.411-11.173-.242-15.416 3.05-3.227 2.502-5.236 6.047-5.673 9.917l-5.337 19.919c-1.573 3.644-1.586 7.801.006 11.644a17.075 17.075 0 002.025 3.573c-5.1 10.618-10.914 23.713-17.017 38.282a2.405 2.405 0 01-.021.049c-5.331 12.728-10.879 26.572-16.359 40.867-18.682 5.068-42.505 26.934-49.436 52.794L26.98 447.128c-4.413 16.473 6.424 33.74 24.157 38.491l46.947 12.58.002.001 46.945 12.579a35.67 35.67 0 009.229 1.224c5.351 0 10.613-1.23 15.372-3.648 7.852-3.99 13.38-10.678 15.565-18.832l6.308-23.543.003-.01.002-.009 39.546-147.587c6.93-25.861-2.77-56.708-16.414-70.439 3.437-21.645 6.295-42.565 8.314-60.632.006-.052.013-.104.018-.157 1.01-9.053 1.807-17.38 2.362-24.725 4.329-2.121 7.763-6.016 9.107-11.027l5.832-21.763c2.425-9.063-2.973-18.411-12.033-20.839zm-62.364 375.552c-.697 2.599-2.581 4.794-5.307 6.179-3.085 1.567-6.766 1.9-10.365.936l-46.944-12.578-.002-.001-46.947-12.58c-6.961-1.865-11.547-8.275-10.015-13.997l3.723-13.895 119.58 32.042zm8.9-33.212L55.197 419.09 89.57 290.813l119.58 32.042zm38.498-147.877l-117.482-31.48c8.671-17.117 26.267-29.503 34.042-29.699a10.001 10.001 0 009.099-6.451 1489.126 1489.126 0 0115.591-39.444h47.256c-1.648 13.427-3.697 28.106-6.052 43.269l-2.445-.655c-5.337-1.43-10.818 1.736-12.247 7.071s1.736 10.818 7.071 12.247l11.479 3.076c6.515 5.207 14.69 23.797 13.688 42.066zm2.457-159.31c-.079.001-.157.01-.236.013-.074.002-.146.007-.219.012-.243.015-.484.038-.723.07-.083.011-.165.021-.247.034a10.01 10.01 0 00-.71.141c-.068.016-.138.028-.206.046-.287.074-.57.159-.848.258-.09.032-.177.071-.267.105-.187.073-.373.148-.555.231a9.348 9.348 0 00-.333.164 10.321 10.321 0 00-.783.437 9.656 9.656 0 00-.466.31c-.088.062-.177.121-.263.186-.203.152-.399.312-.59.479-.03.026-.062.049-.091.076-.225.202-.439.415-.646.636-.043.046-.082.095-.124.142a9.86 9.86 0 00-.454.542c-.059.076-.115.155-.172.233a9.527 9.527 0 00-.789 1.272c-.058.111-.116.221-.17.334-.075.16-.143.324-.21.488-.05.121-.104.24-.148.363a10.01 10.01 0 00-.441 1.655c-.012.065-.03.13-.041.195-.007.042-.008.087-.015.131-.044.302-.079.604-.096.905-.364 6.547-.996 14.238-1.859 22.779h-41.044c5.17-11.881 9.983-22.289 14.13-30.493.131-.26.248-.53.357-.804.019-.049.045-.097.064-.146.02-.054.034-.111.054-.165a10.254 10.254 0 00.453-1.679c.022-.124.034-.248.051-.372.025-.184.05-.367.064-.55.01-.117.014-.234.019-.351.009-.196.014-.391.011-.585-.002-.104-.004-.208-.009-.311a9.773 9.773 0 00-.05-.643c-.009-.083-.017-.166-.028-.249a9.71 9.71 0 00-.133-.759l-.024-.125c-.069-.302-.151-.6-.247-.893l-.019-.052a9.878 9.878 0 00-.294-.768c-.04-.092-.084-.182-.126-.273a9.232 9.232 0 00-.712-1.281 10.847 10.847 0 00-.211-.316c-.11-.155-.228-.304-.347-.453-.066-.083-.128-.169-.198-.25a9.892 9.892 0 00-.594-.635c-.063-.062-.13-.118-.195-.178a10.016 10.016 0 00-.501-.439c-.074-.06-.151-.118-.227-.176a9.719 9.719 0 00-.559-.398c-.069-.045-.137-.091-.208-.135-.063-.04-.124-.085-.188-.123l4.454-16.606 42.409 11.363z" transform="rotate(-20.321 689.108 -308.2) scale(.13093)"/><path d="M164.797 231.165l-.234-.062c-5.335-1.422-10.816 1.749-12.239 7.085-1.424 5.337 1.748 10.816 7.085 12.239l.234.063c.863.23 1.73.34 2.583.34 4.419 0 8.463-2.953 9.656-7.426 1.423-5.337-1.749-10.816-7.085-12.239zM164.826 352.121c-5.036-8.723-13.167-14.961-22.896-17.568a37.782 37.782 0 00-9.775-1.292c-17.024 0-31.993 11.495-36.401 27.953-2.607 9.728-1.27 19.889 3.766 28.611s13.167 14.961 22.895 17.567a37.781 37.781 0 009.775 1.291c17.023 0 31.993-11.494 36.402-27.953 2.608-9.727 1.27-19.888-3.766-28.609zm-15.551 23.434c-2.071 7.73-9.096 13.128-17.084 13.128-1.541 0-3.088-.205-4.6-.61a17.588 17.588 0 01-10.75-8.249 17.583 17.583 0 01-1.768-13.435c2.07-7.73 9.095-13.129 17.083-13.129 1.541 0 3.088.205 4.6.61a17.59 17.59 0 0110.751 8.25 17.6 17.6 0 011.768 13.435zM485.012 447.127l-45.859-171.149c-6.93-25.862-30.753-47.728-49.435-52.794-5.48-14.295-11.028-28.14-16.359-40.867l-.021-.05c-6.103-14.569-11.917-27.664-17.018-38.281a17.109 17.109 0 002.024-3.572c1.593-3.843 1.579-8.001.007-11.645l-5.338-19.919c-.437-3.869-2.445-7.414-5.672-9.916-4.243-3.293-10.15-4.462-15.417-3.05l-48.177 12.908a16.898 16.898 0 00-10.322 7.932c-2.275 3.941-2.882 8.525-1.707 12.907l5.83 21.764c1.344 5.011 4.778 8.906 9.108 11.026.554 7.341 1.35 15.663 2.359 24.711.006.064.015.128.022.192 2.018 18.061 4.875 38.972 8.311 60.61-13.644 13.73-23.343 44.579-16.414 70.439l45.859 171.148c2.186 8.155 7.714 14.843 15.566 18.832 4.759 2.419 10.021 3.648 15.372 3.648 3.072 0 6.175-.405 9.228-1.224l93.895-25.159c8.372-2.243 15.508-7.357 20.093-14.399 4.807-7.382 6.25-15.937 4.065-24.092zM297.769 144.084a11.114 11.114 0 00-.969-.111c-.118-.008-.236-.016-.356-.02-.063-.002-.124-.009-.186-.01l-4.449-16.608 42.409-11.36 4.451 16.606c-.064.039-.125.083-.188.123l-.211.137c-.19.126-.375.258-.555.395-.077.06-.155.118-.231.179-.17.139-.334.284-.494.433-.066.062-.136.121-.201.184-.205.202-.403.413-.59.631-.073.085-.139.176-.209.264-.115.144-.229.289-.336.438-.076.106-.146.215-.218.325a9.283 9.283 0 00-.706 1.268c-.044.094-.09.187-.13.282a10.46 10.46 0 00-.287.751c-.008.023-.018.046-.025.069-.096.292-.177.589-.246.889-.01.046-.017.092-.026.138a9.774 9.774 0 00-.132.746c-.011.085-.018.171-.028.256a10.316 10.316 0 00-.06.951 14.057 14.057 0 00.03.936c.015.183.04.365.065.548.017.124.029.249.052.372a9.767 9.767 0 00.435 1.624c.026.073.046.15.073.223.012.031.028.061.04.091.116.296.243.585.385.864 4.147 8.203 8.958 18.607 14.127 30.485H307.96c-.863-8.542-1.496-16.233-1.859-22.779a10.174 10.174 0 00-.097-.913c-.006-.041-.008-.082-.014-.122-.011-.066-.029-.132-.042-.198a9.74 9.74 0 00-.442-1.658c-.041-.114-.091-.224-.137-.337-.071-.175-.144-.35-.224-.519-.05-.105-.105-.208-.159-.312-.09-.173-.183-.344-.281-.511a9.51 9.51 0 00-.521-.785c-.056-.076-.109-.153-.167-.227a10.31 10.31 0 00-.444-.531c-.048-.053-.092-.108-.14-.16-.201-.215-.41-.422-.628-.618-.075-.068-.156-.129-.233-.195a9.041 9.041 0 00-.432-.35c-.124-.095-.254-.182-.383-.271-.105-.071-.209-.142-.316-.209a9.595 9.595 0 00-.46-.273c-.086-.048-.173-.093-.26-.139a10.44 10.44 0 00-.531-.261l-.165-.069a9.834 9.834 0 00-1.895-.59c-.119-.025-.239-.051-.361-.072zm14.638 117.105l11.478-3.075c5.335-1.429 8.501-6.913 7.071-12.247s-6.915-8.502-12.247-7.071l-2.445.655c-2.354-15.164-4.403-29.844-6.052-43.269h47.257a1485.694 1485.694 0 0115.591 39.444 10 10 0 009.099 6.45c7.774.196 25.369 12.582 34.04 29.7l-117.482 31.48c-1.002-18.271 7.174-36.861 13.69-42.067zm24.807 189.944l-34.372-128.278 119.58-32.042 34.372 128.278zm126.974 9.174c-1.889 2.9-4.91 5.029-8.508 5.993l-93.895 25.159c-3.599.964-7.278.632-10.364-.936-2.726-1.385-4.61-3.579-5.307-6.179l-3.723-13.894 119.58-32.042 3.723 13.895c.696 2.6.162 5.443-1.506 8.004z" transform="rotate(-20.321 689.108 -308.2) scale(.13093)"/><path d="M359.665 238.178c-1.429-5.334-6.909-8.503-12.246-7.073l-.233.063c-5.335 1.429-8.501 6.912-7.072 12.246 1.196 4.469 5.236 7.416 9.653 7.416.855 0 1.727-.111 2.593-.343l.233-.063c5.335-1.429 8.501-6.912 7.072-12.246zM416.238 361.214c-4.409-16.459-19.379-27.954-36.402-27.954-3.288 0-6.577.435-9.775 1.292-9.729 2.606-17.859 8.845-22.896 17.568-5.035 8.722-6.373 18.883-3.767 28.612 4.41 16.456 19.38 27.951 36.402 27.952h.002c3.287 0 6.576-.435 9.774-1.291 9.728-2.606 17.859-8.845 22.895-17.567 5.036-8.723 6.374-18.884 3.767-28.612zm-21.086 18.611a17.59 17.59 0 01-10.75 8.249c-1.511.405-3.059.61-4.599.61h-.001c-7.987 0-15.014-5.399-17.085-13.128a17.592 17.592 0 011.768-13.435 17.594 17.594 0 0110.751-8.25 17.779 17.779 0 014.6-.61c7.987 0 15.013 5.399 17.084 13.13a17.59 17.59 0 01-1.768 13.434zM255.996 0c-5.523 0-10 4.477-10 10v26.764c0 5.523 4.477 10 10 10 5.522 0 10-4.477 10-10V10c0-5.523-4.477-10-10-10zM222.552 50.193l-13.596-23.178c-2.794-4.764-8.922-6.361-13.685-3.566-4.764 2.794-6.36 8.921-3.566 13.685l13.596 23.178a9.996 9.996 0 0013.685 3.566c4.764-2.795 6.36-8.922 3.566-13.685zM316.723 23.449c-4.765-2.795-10.892-1.197-13.686 3.566l-13.596 23.178c-2.794 4.764-1.198 10.891 3.566 13.685a9.998 9.998 0 0013.686-3.566l13.596-23.178c2.794-4.764 1.197-10.891-3.566-13.685z" transform="rotate(-20.321 689.108 -308.2) scale(.13093)"/></g><g id="c"><path d="M125.566 84.147c-2.262-5.038-8.179-7.288-13.217-5.027l-.908.411c-5.022 2.297-7.23 8.23-4.934 13.252a10.002 10.002 0 009.099 5.843 9.958 9.958 0 004.153-.909l.779-.353c5.039-2.262 7.29-8.179 5.028-13.217zM90.055 103.628c-3.709-4.093-10.033-4.402-14.124-.694-22.836 20.697-35.934 50.244-35.934 81.064a93.847 93.847 0 0024.134 62.883 9.978 9.978 0 007.435 3.31 9.96 9.96 0 006.686-2.567c4.104-3.695 4.437-10.017.742-14.122a73.88 73.88 0 01-18.999-49.504c0-25.187 10.703-49.332 29.366-66.247 4.091-3.707 4.402-10.031.694-14.123zM458.713 218.911c-4.813-2.698-10.981-1.035-13.687 3.771-2.706 4.808-.925 10.943 3.877 13.657l.058.033a10.082 10.082 0 004.911 1.274c3.517 0 6.938-1.825 8.763-5.091 2.689-4.816.889-10.946-3.922-13.644z" transform="matrix(.1252 .02912 -.02912 .1252 226.404 30.497)"/><path d="M492.505 248.181c-3.313-4.419-9.58-5.319-13.998-2.005-4.419 3.312-5.317 9.579-2.005 13.998 9.995 13.336 15.499 29.86 15.499 46.528a68.108 68.108 0 01-17.519 45.642l-.572.636c-6.416 7.128-15.464 11.347-24.818 11.574-.417.011-.831.011-1.231.008-.12-.002-.37-.005-.631-.293-.154-.17-.404-.545-.352-1.143.118-1.343.177-2.713.177-4.071a51.606 51.606 0 00-16.92-38.171c-6.509-5.898-14.08-10.223-22.503-12.853a10.002 10.002 0 00-12.979 9.545v27.963c0 17.03 2.354 33.974 6.994 50.358a164.783 164.783 0 016.237 44.91c0 13.33-10.845 24.175-24.175 24.175h-9.443c-13.33 0-24.175-10.845-24.175-24.175 0-15.064 2.065-30.055 6.138-44.556 4.708-16.764 7.094-33.516 7.094-49.792v-28.884a9.994 9.994 0 00-4.076-8.055 9.992 9.992 0 00-8.903-1.49c-8.422 2.63-15.994 6.953-22.503 12.853a51.609 51.609 0 00-16.921 38.171c0 1.289.054 2.594.161 3.877.059.705-.268 1.146-.411 1.302-.298.326-.572.328-.627.329l-.333.001a34.223 34.223 0 01-25.397-11.309l-.821-.913a68.104 68.104 0 01-17.516-45.638c0-20.723 8.07-40.206 22.722-54.859l3.235-3.234c15.885-15.886 37.006-24.634 59.471-24.634H402c2.249 0 4.527.081 6.77.241 5.518.407 10.292-3.755 10.684-9.263.393-5.509-3.755-10.292-9.263-10.684-2.714-.193-5.47-.292-8.19-.292h-50.594c-27.808 0-53.951 10.829-73.612 30.492l-3.235 3.234a97.987 97.987 0 00-16.717 22.286c-16.961-6.502-34.739-9.805-52.861-9.805-27.364 0-54.145 7.58-77.449 21.922l-.907.558a59.975 59.975 0 01-31.455 8.903 60.103 60.103 0 01-44.605-19.862l-1.299-1.442A113.816 113.816 0 0119.997 184c0-36.454 15.492-71.402 42.503-95.882 29.243-26.503 67.082-41.099 106.548-41.099h71.868c39.466 0 77.306 14.596 106.548 41.099 24.496 22.201 39.443 52.573 42.088 85.52.441 5.505 5.265 9.608 10.767 9.166 5.505-.442 9.609-5.263 9.166-10.767-3.054-38.04-20.311-73.106-48.592-98.738-32.928-29.844-75.537-46.279-119.977-46.279h-71.868c-44.44 0-87.049 16.436-119.977 46.279C17.886 101.563 0 141.911 0 183.999a133.773 133.773 0 0034.405 89.642l1.299 1.442c15.15 16.83 36.826 26.481 59.469 26.481a79.967 79.967 0 0041.936-11.87l.907-.558a127.942 127.942 0 016.206-3.563v15.621c0 18.753-4.208 37.642-12.17 54.623-9.199 19.618-14.062 41.443-14.062 63.112 0 36.422 29.632 66.054 66.054 66.054h42.112c36.422 0 66.054-29.632 66.054-66.054 0-13.275-1.833-26.606-5.363-39.455a54.166 54.166 0 0022.866 5.089l.409-.001c5.89-.046 11.329-2.475 15.317-6.84 4.042-4.427 6.075-10.419 5.575-16.444a26.554 26.554 0 01-.092-2.222 31.57 31.57 0 0110.352-23.352 40.662 40.662 0 012.054-1.742v12.499c0 14.449-2.136 29.383-6.349 44.385a184.773 184.773 0 00-6.882 49.963c0 24.357 19.815 44.173 44.173 44.173h9.443c24.357 0 44.173-19.815 44.173-44.173 0-17.03-2.354-33.974-6.994-50.36a164.764 164.764 0 01-6.237-44.908v-11.578a41.71 41.71 0 012.054 1.741 31.578 31.578 0 0110.351 23.352c0 .778-.034 1.562-.102 2.331-.52 5.964 1.467 11.906 5.451 16.306 3.945 4.356 9.346 6.794 15.222 6.866.646.008 1.289.004 1.946-.012 14.833-.36 29.122-6.989 39.203-18.189l.572-.636A88.091 88.091 0 00512 306.702c0-20.963-6.923-41.747-19.495-58.521zm-266.35 216.803h-42.112c-25.395 0-46.055-20.66-46.055-46.055 0-18.755 4.208-37.643 12.17-54.623 9.199-19.619 14.062-41.444 14.062-63.112v-24.319a127.69 127.69 0 0140.764-6.693c15.461 0 30.636 2.785 45.131 8.264-2.723 9.047-4.135 18.544-4.135 28.257 0 6.326.696 12.574 2.011 18.659 2.228 13.46 6.281 26.637 12.051 38.945 7.961 16.98 12.169 35.868 12.169 54.623 0 25.394-20.661 46.054-46.056 46.054z" transform="matrix(.1252 .02912 -.02912 .1252 226.404 30.497)"/></g><g id="d"><path d="M508.743 248.959l-70.976-122.935a24.454 24.454 0 00-7.234-7.865 128.116 128.116 0 002.881-15.194l.563-4.414a24.407 24.407 0 00-12.036-24.277L299.006 3.298c-7.109-4.104-15.743-4.377-23.097-.731s-12.364 10.684-13.401 18.826c-3.012 23.646-15.622 45.484-34.594 59.916l-6.261 4.762c-27.094 20.609-45.102 51.796-49.404 85.565-3.626 28.461-18.792 54.748-41.616 72.131a3.075 3.075 0 00-.068.052c-16.842 12.81-30.302 29.731-39.032 48.999a125.525 125.525 0 00-5.467 6.682l-4.746 6.239c-14.438 18.979-36.285 31.591-59.94 34.604a24.411 24.411 0 00-18.827 13.401 24.41 24.41 0 00.732 23.097L74.26 499.775a24.401 24.401 0 0021.156 12.233 24.71 24.71 0 003.12-.198l4.43-.564c16.258-2.071 31.912-7.326 46.082-15.235l22.028 12.718a24.445 24.445 0 0012.237 3.288 24.426 24.426 0 0014.804-5.003l3.555-2.704c26.262-19.976 43.986-49.89 48.968-82.464a106.007 106.007 0 0110.193-1.812c33.769-4.301 64.957-22.306 85.568-49.4a108.036 108.036 0 016.949-8.244c3.766-4.04 3.545-10.367-.494-14.134-4.04-3.767-10.367-3.544-14.134.494a128.177 128.177 0 00-8.24 9.776c-17.385 22.853-43.691 38.041-72.19 41.67-33.769 4.3-64.957 22.305-85.572 49.406l-.103.136c-17.385 22.853-43.691 38.041-72.176 41.668l-4.43.564a4.452 4.452 0 01-4.429-2.196l-15.945-27.617c33.409-4.512 64.213-22.426 84.637-49.274l.103-.136c17.385-22.854 43.691-38.041 72.191-41.67 33.769-4.3 64.958-22.306 85.567-49.4 17.385-22.854 43.692-38.041 72.182-41.668l.186-.024c33.452-4.26 64.365-21.975 84.977-48.644l15.945 27.618a4.45 4.45 0 01-.313 4.933l-2.694 3.542c-17.384 22.854-43.691 38.041-72.178 41.669l-.191.024c-5.479.699-9.353 5.706-8.654 11.185s5.708 9.355 11.185 8.654l.189-.024c33.77-4.301 64.958-22.306 85.567-49.399l2.694-3.542a24.41 24.41 0 001.713-27.042zM188.538 461.84l.103-.136c10.56-13.881 24.415-24.927 40.05-32.28-6.035 23.304-19.856 44.309-39.128 58.968l-3.554 2.703a4.457 4.457 0 01-4.934.313l-13.617-7.862c7.825-6.345 14.926-13.616 21.08-21.706zM414.136 96.024l-.563 4.414a107.993 107.993 0 01-2.755 14.044 24.405 24.405 0 00-13.707 8.964c-14.257 18.742-35.747 31.256-59.063 34.46 25.173-20.388 41.929-50.113 46.275-82.255l27.618 15.945a4.45 4.45 0 012.195 4.428zm-48.582-31.21l-.937 7.359c-3.629 28.484-18.818 54.791-41.675 72.176l-.151.115a127.77 127.77 0 00-22.358 21.824c-22.261 8.447-42.07 23.029-56.61 42.143a106.11 106.11 0 01-4.88 5.947c.882-3.93 1.589-7.914 2.102-11.948 3.629-28.484 18.818-54.791 41.675-72.176l.15-.114c26.84-20.415 44.754-51.212 49.271-84.615zM192.088 174.163c3.629-28.484 18.818-54.791 41.672-72.174l6.261-4.762c23.213-17.656 38.641-44.375 42.326-73.306.263-2.064 1.645-3.038 2.445-3.435.801-.397 2.412-.907 4.214.133l24.366 14.068-.937 7.359c-3.629 28.484-18.818 54.791-41.675 72.176l-.151.115c-27.095 20.609-45.102 51.796-49.404 85.565-1.724 13.533-5.92 26.411-12.479 38.324-11.477 6.127-24.055 10.214-37.095 11.875a126.554 126.554 0 00-23.676 5.383c24.151-20.519 40.116-49.793 44.133-81.321zM20.471 362.627c.396-.8 1.371-2.182 3.435-2.445 28.94-3.686 55.668-19.116 73.331-42.335l4.746-6.239c17.384-22.853 43.691-38.041 72.19-41.67 16.089-2.049 31.589-7.215 45.641-14.987a9.977 9.977 0 002.028-1.138c14.614-8.429 27.582-19.713 37.898-33.275 17.385-22.854 43.692-38.042 72.176-41.669l7.804-.994c28.931-3.685 55.651-19.11 73.308-42.322 1.259-1.655 2.941-1.811 3.834-1.752.892.057 2.542.42 3.583 2.223l14.068 24.366-4.491 5.904c-17.385 22.854-43.692 38.042-72.157 41.667l-.21.026c-33.77 4.301-64.958 22.306-85.568 49.4-17.384 22.854-43.691 38.042-72.191 41.67-33.77 4.301-64.958 22.306-85.562 49.393l-.113.148c-17.384 22.853-43.691 38.041-72.176 41.668l-7.374.939-14.067-24.365c-1.04-1.802-.53-3.413-.133-4.213zM460.15 218.476c-17.384 22.854-43.692 38.041-72.181 41.669l-.186.024c-33.77 4.3-64.958 22.306-85.568 49.4-17.385 22.854-43.692 38.041-72.191 41.67-33.769 4.301-64.958 22.306-85.572 49.406l-.103.136c-17.384 22.853-43.691 38.041-72.176 41.668l-7.374.939-19.291-33.413c33.409-4.512 64.213-22.426 84.626-49.262l.113-.148c17.384-22.854 43.692-38.041 72.191-41.67 33.769-4.3 64.958-22.306 85.567-49.4 17.384-22.853 43.692-38.041 72.157-41.666l.21-.026c33.451-4.26 64.364-21.974 84.977-48.643l19.291 33.414z" transform="translate(294 290) scale(.11718)"/><path d="M378.547 320.947c-2.63 0-5.21 1.07-7.07 2.93s-2.93 4.44-2.93 7.07 1.07 5.21 2.93 7.07 4.44 2.93 7.07 2.93c2.64 0 5.21-1.07 7.07-2.93 1.87-1.86 2.93-4.44 2.93-7.07s-1.06-5.21-2.93-7.07a10.055 10.055 0 00-7.07-2.93z" transform="translate(294 290) scale(.11718)"/></g><g id="e"><path d="M448.235 202.366a7.494 7.494 0 00-5.726-.407L243.81 268.191l66.233-198.698a7.503 7.503 0 00-4.744-9.488 231.61 231.61 0 00-73.347-11.907c-61.957 0-120.205 24.127-164.015 67.937S0 218.093 0 280.05s24.127 120.205 67.937 164.014c43.81 43.81 102.058 67.938 164.015 67.938s120.205-24.127 164.015-67.938c43.81-43.81 67.937-102.058 67.937-164.014 0-24.958-4.006-49.635-11.908-73.347a7.5 7.5 0 00-3.761-4.337zM385.36 433.458c-40.977 40.977-95.458 63.544-153.408 63.544s-112.431-22.567-153.408-63.544S15 338 15 280.05s22.567-112.431 63.543-153.408c40.977-40.977 95.458-63.544 153.408-63.544 20.842 0 41.478 2.988 61.448 8.889l-5.401 16.203a199.499 199.499 0 00-56.047-8.027c-110.218 0-199.887 89.669-199.887 199.887s89.669 199.887 199.887 199.887c60.983 0 117.858-27.32 156.044-74.956a7.499 7.499 0 00-1.161-10.542 7.499 7.499 0 00-10.543 1.161c-35.323 44.065-87.933 69.337-144.34 69.337-101.947 0-184.887-82.94-184.887-184.887s82.94-184.887 184.887-184.887c17.393 0 34.615 2.441 51.302 7.264l-58.417 175.251a7.5 7.5 0 009.487 9.487l175.251-58.417a184.516 184.516 0 017.264 51.302c0 31.356-7.99 62.329-23.105 89.57a7.5 7.5 0 1013.116 7.277c16.348-29.462 24.989-62.951 24.989-96.848 0-19.007-2.701-37.825-8.028-56.048l16.203-5.401a216.53 216.53 0 018.889 61.449c.001 57.951-22.566 112.432-63.542 153.409z" transform="matrix(.13658 -.01423 .01423 .13658 58.353 -12.071)"/><path d="M511.615 147.084C488.657 78.184 433.817 23.344 364.918.386a7.5 7.5 0 00-9.486 4.744l-70.976 212.929a7.5 7.5 0 009.487 9.487l182.509-60.836h.001l.003-.001 30.416-10.139a7.5 7.5 0 004.743-9.486zm-32.923 3.067c-13.527-36.074-36.992-67.193-68.209-90.338a7.498 7.498 0 00-10.491 1.558 7.499 7.499 0 001.558 10.491c28.729 21.301 50.359 49.896 62.901 83.037L303.43 208.572l53.668-161.003a184.46 184.46 0 0115.856 6.863 7.5 7.5 0 0010.038-3.425 7.5 7.5 0 00-3.426-10.038 199.294 199.294 0 00-17.718-7.652l5.401-16.203c58.772 21.905 105.734 68.867 127.639 127.64zM191.355 199.889c0-3.347-.42-6.674-1.248-9.89a7.501 7.501 0 00-14.527 3.741c.514 1.995.774 4.063.774 6.148 0 13.545-11.02 24.564-24.564 24.564s-24.565-11.02-24.565-24.564 11.02-24.565 24.565-24.565c2.09 0 4.164.262 6.163.778a7.498 7.498 0 009.136-5.388 7.5 7.5 0 00-5.388-9.136 39.68 39.68 0 00-9.911-1.254c-21.816 0-39.565 17.749-39.565 39.565s17.749 39.564 39.565 39.564c21.816.001 39.565-17.747 39.565-39.563z" transform="matrix(.13658 -.01423 .01423 .13658 58.353 -12.071)"/><path d="M376.758 135.76c0 12.976 10.557 23.532 23.532 23.532s23.532-10.557 23.532-23.532-10.557-23.532-23.532-23.532-23.532 10.556-23.532 23.532zm23.533-8.533c4.705 0 8.532 3.828 8.532 8.532 0 4.705-3.828 8.532-8.532 8.532s-8.532-3.827-8.532-8.532c-.001-4.704 3.827-8.532 8.532-8.532zM280.048 344.695c-17.396 0-31.548 14.153-31.548 31.549s14.152 31.548 31.548 31.548 31.548-14.152 31.548-31.548c.001-17.396-14.152-31.549-31.548-31.549zm0 48.097c-9.125 0-16.548-7.423-16.548-16.548s7.423-16.549 16.548-16.549 16.548 7.424 16.548 16.549c.001 9.124-7.423 16.548-16.548 16.548zM159.807 304.614c-17.396 0-31.548 14.153-31.548 31.548 0 17.396 14.152 31.549 31.548 31.549s31.548-14.153 31.548-31.549c0-17.395-14.152-31.548-31.548-31.548zm0 48.098c-9.125 0-16.548-7.424-16.548-16.549s7.423-16.548 16.548-16.548 16.548 7.423 16.548 16.548-7.423 16.549-16.548 16.549zM375.726 296.082c0-12.976-10.557-23.532-23.532-23.532s-23.532 10.557-23.532 23.532 10.557 23.532 23.532 23.532 23.532-10.556 23.532-23.532zm-23.533 8.532c-4.705 0-8.532-3.828-8.532-8.532s3.828-8.532 8.532-8.532 8.532 3.828 8.532 8.532-3.827 8.532-8.532 8.532zM207.903 392.792c-12.976 0-23.532 10.557-23.532 23.532s10.557 23.532 23.532 23.532 23.532-10.557 23.532-23.532-10.556-23.532-23.532-23.532zm0 32.064c-4.705 0-8.532-3.827-8.532-8.532 0-4.704 3.828-8.532 8.532-8.532s8.532 3.828 8.532 8.532c.001 4.705-3.827 8.532-8.532 8.532zM355.547 137.068a7.5 7.5 0 00-10.062 3.354l-8.016 16.032a7.5 7.5 0 1013.416 6.708l8.016-16.032a7.499 7.499 0 00-3.354-10.062zM381.545 82.36l-8.016-8.017a7.5 7.5 0 00-10.606 0 7.5 7.5 0 000 10.606l8.016 8.017c1.464 1.464 3.384 2.196 5.303 2.196s3.839-.732 5.303-2.196a7.5 7.5 0 000-10.606zM196.533 142.468l16.032 8.016a7.5 7.5 0 0010.062-3.355 7.5 7.5 0 00-3.354-10.062l-16.032-8.016a7.5 7.5 0 00-6.708 13.417zM247.984 143.26a7.5 7.5 0 007.5-7.5v-8.016c0-4.143-3.358-7.5-7.5-7.5s-7.5 3.357-7.5 7.5v8.016a7.5 7.5 0 007.5 7.5zM76.291 254.694l16.032 8.016a7.462 7.462 0 003.348.794 7.5 7.5 0 006.714-4.148 7.5 7.5 0 00-3.354-10.062l-16.032-8.017a7.499 7.499 0 00-10.062 3.354 7.5 7.5 0 003.354 10.063zM128.258 272.034v8.016a7.5 7.5 0 0015 0v-8.016a7.5 7.5 0 00-15 0zM216.436 199.889v8.016a7.5 7.5 0 0015 0v-8.016a7.5 7.5 0 00-15 0zM181.142 258.715a7.5 7.5 0 00-10.606 0 7.5 7.5 0 000 10.606l8.016 8.016c1.464 1.464 3.384 2.197 5.303 2.197s3.839-.732 5.303-2.197a7.5 7.5 0 000-10.606zM92.964 298.795a7.5 7.5 0 00-10.606 0l-8.016 8.016a7.5 7.5 0 000 10.606c1.464 1.465 3.384 2.197 5.303 2.197s3.839-.732 5.303-2.197l8.016-8.016a7.497 7.497 0 000-10.606zM103.693 344.695h-8.016a7.5 7.5 0 000 15h8.016a7.5 7.5 0 000-15zM234.665 314.828l-8.016 8.016a7.5 7.5 0 000 10.606c1.464 1.465 3.384 2.197 5.303 2.197s3.839-.732 5.303-2.197l8.016-8.016a7.5 7.5 0 000-10.606 7.497 7.497 0 00-10.606 0zM207.903 360.727a7.5 7.5 0 000 15h8.016a7.5 7.5 0 000-15zM151.791 392.792a7.5 7.5 0 00-7.5 7.5v8.017a7.5 7.5 0 0015 0v-8.017a7.5 7.5 0 00-7.5-7.5zM272.032 424.856h-8.016a7.5 7.5 0 000 15h8.016a7.5 7.5 0 100-15zM296.081 327.631a7.5 7.5 0 007.5-7.5v-16.032a7.5 7.5 0 00-15 0v16.032a7.5 7.5 0 007.5 7.5zM349.48 354.908a7.5 7.5 0 00-10.606 0 7.5 7.5 0 000 10.606l8.016 8.017c1.464 1.464 3.384 2.196 5.303 2.196s3.839-.732 5.303-2.196a7.5 7.5 0 000-10.606zM384.258 328.663h-8.017a7.5 7.5 0 000 15h8.017a7.5 7.5 0 000-15zM399.774 272.034v-8.016a7.5 7.5 0 00-15 0v8.016a7.5 7.5 0 0015 0z" transform="matrix(.13658 -.01423 .01423 .13658 58.353 -12.071)"/></g><g id="f"><path d="M61.899 110.52c-10.137 0-18.384 7.985-18.384 17.797 0 9.811 8.247 17.792 18.384 17.792s18.383-7.981 18.383-17.792c0-9.813-8.247-17.797-18.383-17.797zm0 28.841c-6.415 0-11.634-4.954-11.634-11.042 0-6.091 5.219-11.047 11.634-11.047s11.633 4.955 11.633 11.047c0 6.089-5.219 11.042-11.633 11.042zM99.42 52.066c-9.2 0-16.407 5.56-16.407 12.658S90.22 77.383 99.42 77.383s16.407-5.561 16.407-12.659c0-7.097-7.207-12.658-16.407-12.658zm0 18.567c-5.144 0-9.657-2.761-9.657-5.909 0-2.794 3.966-5.908 9.657-5.908s9.657 3.114 9.657 5.908c0 3.148-4.512 5.909-9.657 5.909z" transform="translate(103 113) scale(.28124)"/><path d="M61.899 110.52c-10.137 0-18.384 7.985-18.384 17.797 0 9.811 8.247 17.792 18.384 17.792s18.383-7.981 18.383-17.792c0-9.813-8.247-17.797-18.383-17.797zm0 28.841c-6.415 0-11.634-4.954-11.634-11.042 0-6.091 5.219-11.047 11.634-11.047s11.633 4.955 11.633 11.047c0 6.089-5.219 11.042-11.633 11.042z" transform="translate(103 113) scale(.28124)"/><path d="M211.74 75.599c-.27-.693-1.484-3.584-3.909-6.143-17.343-18.326-38.353-31.268-62.444-38.466-13.636-4.074-27.657-6.14-41.677-6.14-2.832 0-5.378.846-7.178 2.387-.814.701-43.477 36.914-51.898 44.045-1.146.975-1.924 2.007-2.31 3.069a3.375 3.375 0 001.87 4.267c2.467 1.031 3.76 2.712 3.76 4.037 0 1.415-1.349 2.828-3.899 3.842-1.851.734-4.013 1.122-6.25 1.122-1.926 0-3.823-.292-5.484-.844-.044-.015-1.526-.586-2.698-.586-1.621 0-3.212.654-4.727 1.943-.282.24-1.096.905-2.232 1.833-8.66 7.08-14.747 12.166-16.307 13.979-1.918 2.227-3.024 4-3.401 4.641-.753 1.02-2.956 4.483-2.956 10.07v17.395c0 3.512 2.343 5.084 4.666 5.084.466 0 .854-.059 1.111-.096l.126-.019c.216-.033.453-.05.705-.05 3.144 0 5.703 2.74 5.703 6.109 0 3.363-2.558 6.1-5.703 6.1-.22 0-.44-.014-.635-.037a5.004 5.004 0 00-.664-.043c-2.61 0-5.309 1.927-5.309 5.152v24.189c0 3.449 2.577 6.051 5.994 6.051.403 0 .817-.037 1.227-.107 2.521-.437 89.258-15.065 146.653-24.746 26.15-4.411 47.25-7.969 53.904-9.094 2.324-.365 5.095-1.711 5.095-6.049 0-.191.017-2.093.045-5.158.114-12.705.421-46.454.421-59.952.004-3.59-1.319-7.088-1.599-7.785zM26.939 95.192c1.187-.971 2.038-1.667 2.334-1.919.173-.147.785-.138.918-.094 2.341.778 4.974 1.19 7.615 1.19 3.08 0 6.101-.552 8.741-1.598 5.296-2.107 8.458-5.948 8.458-10.273 0-2.651-1.234-5.141-3.448-7.156-.203-.185-.564-.598-.056-1.031 11.671-9.929 48.531-41.18 49.43-41.954.553-.474 1.592-.757 2.779-.757 22.035 0 64.227 5.521 99.22 42.498l.187.203-3.077.525-59.155 9.809c-3.054-2.038-6.916-3.185-10.836-3.185-.851 0-1.708.053-2.55.159-4.471.56-10.477 1.957-13.293 7.45l-99.762 16.543c3.802-3.303 9.996-8.366 12.495-10.41zm110.957-4.381c1.27 1.038 2.783 2.837 2.783 5.51 0 5.653-4.777 10.252-10.648 10.252s-10.647-4.599-10.647-10.252c-.002-1.906.15-2.206.435-3.22.64-2.016 2.113-3.992 8.517-4.794.563-.07 1.14-.106 1.711-.106 2.961 0 5.821.951 7.847 2.609v.001zm68.277 52.466l-.042 4.702-53.375 9.003A516017.201 516017.201 0 006.754 181.617V159.93c6.801-.079 12.31-5.813 12.31-12.85 0-7.041-5.509-12.779-12.31-12.859v-17.364c0-2.413.627-2.701 2.434-3.317l103.445-17.377v.158c0 9.375 7.805 17.002 17.396 17.002 9.595 0 17.359-7.627 17.399-17.002.015-3.408-1.259-5.676-1.278-5.716l54.977-9.117 5.12-.804c.195.866.346 1.821.346 2.703 0 13.467-.306 47.194-.42 59.89z" transform="translate(103 113) scale(.28124)"/><path d="M99.42 52.066c-9.2 0-16.407 5.56-16.407 12.658-.001 7.098 7.206 12.659 16.407 12.659 9.2 0 16.407-5.561 16.407-12.659 0-7.097-7.207-12.658-16.407-12.658zm0 18.567c-5.145 0-9.657-2.761-9.657-5.909-.001-2.794 3.965-5.908 9.657-5.908 5.691 0 9.657 3.114 9.657 5.908 0 3.148-4.513 5.909-9.657 5.909z" transform="translate(103 113) scale(.28124)"/></g></defs><rect width="100%" height="100%" fill="url(#g)"/><rect width="100%" height="100%" fill="url(#h)"/><rect width="100%" height="100%" fill="url(#i)"/><rect width="100%" height="100%" fill="url(#j)"/><rect width="100%" height="100%" fill="url(#k)"/><rect width="100%" height="100%" fill="url(#l)"/></svg>