<svg xmlns="http://www.w3.org/2000/svg" width="350" height="342" viewBox="0 0 350 342"><g fill="none" fill-rule="evenodd"><path fill="#F5D83C" d="M172.026 252.417a88.822 88.822 0 00-1.839-6.574c-1.291-4.155-2.693-7.801-3.72-10.403-1.062-2.751-3.367-6.477-4.927-10.701-.777-2.14-1.382-4.469-1.387-6.983-.012-2.448.636-5.094 2.208-7.45 2.492-4.095 6.626-5.742 9.976-6.11 1.411-.188 2.765-.224 4.04-.224 1.153 0 2.247.028 3.254.028.616 0 1.188-.01 1.748-.04 4.539-.212 8.692-1.075 12.771-2.838l.077-.03c5.102-2.1 7.744-4.422 9.47-7.377 1.721-2.965 2.547-7.038 2.888-12.492.017-.251.026-.525.024-.817.022-2.065-.507-4.918-.527-7.966.007-1.893.208-3.994 1.324-6.111 2.16-3.681 5.804-4.898 9.12-5.759l.117-.026c3.368-.695 6.844-.987 9.008-1.47 2.905-.682 5.731-1.43 8.451-2.3 2.502-.998 4.86-2.171 7.071-3.572 2.044-1.674 3.945-3.635 5.686-5.9 1.741-2.622 3.426-5.503 5.167-8.58 1.943-3.338 4.081-6.572 6.573-9.448l.427-.42c2.897-2.408 6.089-4.203 9.35-5.619l.243-.096c3.09-1.086 6.08-2.185 8.858-3.439 2.463-1.254 4.636-2.818 6.523-4.727 1.982-2.553 3.485-5.266 4.46-8.169.729-2.917 1.12-5.982 1.123-9.286 0-.33-.005-.675-.012-1.036a3.625 3.625 0 01.178-1.132 128.263 128.263 0 01-3.094-.769c-3.294-.84-6.518-1.811-9.805-2.826a125.106 125.106 0 00-5.872-1.664 221.68 221.68 0 00-7.637-1.816l-.716-.236c-3.331-1.48-5.684-3.275-7.461-5.124-.015-.017-.033-.028-.047-.045l-.039-.046c-.159-.168-.32-.334-.47-.502-.675-.323-1.405-.474-2.268-.478-.611 0-1.28.084-1.986.259a22.99 22.99 0 01-9.588.812l-.756-.176c-3.246-1.131-6.397-2.925-9.641-5.182l-.245-.188c-3.013-2.505-6.142-4.963-9.37-6.997-2.498-1.108-4.917-1.817-7.269-2.074a25.367 25.367 0 00-2.727-.147c-1.605 0-3.216.145-4.814.399-2.668.42-5.253.937-7.79 1.482l-.141.028c-2.568.444-5.151.828-7.786.95-.459.022-.914.031-1.36.031-2.986-.002-5.839-.425-8.542-.876l-.074-.013c-3.062-.58-6.013-1.14-8.926-1.368a19.497 19.497 0 00-1.591-.064c-2.252 0-4.485.363-6.915.893-1.03.275-2.095.602-3.184.95-3.356 7.736-7.109 16.109-12.614 23.488-5.602 7.505-12.924 14.068-22.798 17.825-3.143 1.193-6.621 1.896-10.102 1.9-3.165-.004-6.362-.583-9.236-2.105a13.884 13.884 0 01-6.61-7.548c-.897-2.447-1.214-5.096-1.263-7.719a36.067 36.067 0 01.692-7.909l.046-.205c.401-1.5 1.05-2.822 1.769-4.1.04-.07.085-.141.125-.212L88.123 87.29l-.126.035c-2.228.551-4.074 1.605-6.356 2.891-.956.534-1.999 1.105-3.149 1.637a3.613 3.613 0 01-1.674.708c-1.134.429-2.37.794-3.734 1.04-.76.137-1.515.234-2.263.302-1.962.985-3.636 2.486-5.073 4.415-2.569 3.488-4.018 8.321-4.003 12.541 0 .588.027 1.158.081 1.713.186 3.185 2.305 6.779 2.425 12.022 0 .168-.013.342-.018.512 2.374-1.465 4.867-2.673 7.419-3.505 2.513-.819 5.096-1.316 7.693-1.318.307 0 .612.007.945.023 2.73.154 5.48.826 8.006 2.207 2.561 1.332 4.85 3.416 6.536 6.152a20.154 20.154 0 013.009 8.759c.08.779.12 1.569.12 2.364 0 2.207-.3 4.406-.817 6.555-.709 3.017-1.823 5.938-3.187 8.705-1.363 2.763-2.974 5.37-4.69 7.777-2.224 3.124-4.688 5.3-7.073 7.105-2.402 1.817-4.718 3.297-7.073 5.19-1.809 1.424-3.409 3.111-5.194 4.912-1.776 1.787-3.738 3.695-6.288 5.328-2.641 1.691-5.335 2.944-7.957 3.996a79.618 79.618 0 01-4.269 1.527c.088.314.151.638.151.982v.172c-.007 3.067.002 6.489-1.83 10.048a3.648 3.648 0 01-4.92 1.569 3.65 3.65 0 01-1.571-4.919c.782-1.507.974-3.079 1.01-5.447-.733.245-1.499.489-2.289.714-1.878.52-3.897.962-6.037.968-.307 0-.617-.015-.93-.035-.528 2.072-1.28 4.131-2.405 6.13-2.639 4.645-6.253 8.866-9.263 13.06-3.037 4.184-5.372 8.258-5.935 12.134-.483 3.17-.774 6.916-.774 10.75 0 .284.009.57.013.854a27.253 27.253 0 011.652-2.052c1.108-1.25 2.331-2.428 3.65-3.574a64.275 64.275 0 014.378-3.492 28.373 28.373 0 015.663-3.167 28.22 28.22 0 016.414-1.811 24.924 24.924 0 013.617-.271c.992 0 1.992.06 3.017.203 2.167.318 4.298.971 6.256 2.064a14.993 14.993 0 015.076 4.607c1.349 1.981 2.263 4.373 2.659 7.077.274 1.907.408 3.744.408 5.517 0 .219-.004.415-.004.626a32.295 32.295 0 01-.593 5.669 30.16 30.16 0 01-1.508 5.172 34.144 34.144 0 01-2.29 4.721 44.34 44.34 0 01-2.936 4.395 64.74 64.74 0 01-3.447 4.139c-1.371 1.526-2.965 3.099-4.772 4.517l-.077.058a36.7 36.7 0 01-5.736 3.491 66.043 66.043 0 01-6.069 2.613 82.299 82.299 0 01-5.105 1.74 17.015 17.015 0 01-2.279 6.121l-.186.277c-1.73 2.335-3.94 4.203-6.28 6.01-2.163 1.839-4.316 3.773-6.135 5.872-1.715 2.212-3.07 4.633-3.941 7.233-.513 1.734-.762 3.409-.762 5.084 0 .834.062 1.664.19 2.502.748 3.715 1.949 5.73 3.196 6.958l.127.13c1.156 1.248 2.659 1.974 4.699 2.369.915.172 1.94.258 3.019.256a25.013 25.013 0 003.893-.322c2.453-.419 4.896-1.258 6.405-2.081 2.014-1.097 3.93-2.441 5.785-3.964 1.846-1.511 3.629-3.213 5.398-4.989 1.78-1.792 3.559-3.649 5.396-5.468 1.839-1.824 3.742-3.616 5.783-5.259 2.77-2.239 5.689-3.498 8.636-3.498 2.671-.008 5.055 1.071 6.87 2.528 1.838 1.466 3.244 3.295 4.442 5.224 2.372 3.855 3.925 8.222 5.026 11.352 1.549 4.455 5.344 7.025 8.636 6.985 2.235-.038 4.463-.95 6.598-3.992 1.035-1.528 1.52-3.161 1.629-5.078.013-.234.02-.479.02-.732 0-1.725-.319-3.636-.881-5.63-.631-2.309-1.507-4.686-2.389-6.967-.881-2.273-1.759-4.406-2.452-6.321-.95-2.657-2.003-5.805-2.009-9.497 0-.79.049-1.606.161-2.445.319-3.258 1.533-5.999 2.91-8.225 1.387-2.329 3.011-4.284 4.492-6.183 1.555-1.969 3.447-3.986 5.734-5.723l.099-.072a22.892 22.892 0 018.234-3.642c1.99-.448 4.054-.712 6.155-.712.93 0 1.874.051 2.83.168 3.079.319 6.209 1.304 9.102 3.147a246.993 246.993 0 016.697 4.217c2.221 1.467 4.398 2.963 6.606 4.447 2.125 1.461 4.227 2.838 6.329 4.049 3.051 1.605 6.085 2.699 9.341 3.162.724.07 1.462.106 2.214.106 2.594-.002 5.376-.43 8.467-1.463 3.965-1.379 5.924-3.389 7.24-6.163.945-2.058 1.418-4.678 1.415-7.65 0-1.034-.059-2.113-.159-3.181-.225-2.156-.634-4.401-1.161-6.628zm79.421-153.786l.002.002a3.652 3.652 0 016.789 2.686c-.742 1.88-1.136 4.013-1.169 6.539a3.652 3.652 0 01-3.651 3.604h-.049a3.65 3.65 0 01-3.603-3.697c.041-3.232.559-6.294 1.681-9.134zm-167.302 3.046c-.267 1.926-.377 3.829-.416 5.914a3.655 3.655 0 01-3.655 3.583l-.067-.001a3.651 3.651 0 01-3.579-3.722c.042-2.255.166-4.473.483-6.775a3.652 3.652 0 017.234 1.001zm-44.923 194.75c-1.806 2.736-3.234 6.284-5.547 9.727-2.268 3.432-5.903 6.782-11.359 7.884a3.652 3.652 0 01-1.515-7.144c3.412-.777 5.039-2.303 6.833-4.847 1.749-2.53 3.186-6.059 5.465-9.599a3.652 3.652 0 016.123 3.979zm21.137-77.729c-1.743-2.463-1.729-4.727-1.825-7.184.003-1.745.175-3.518.462-5.146.309-1.641.658-3.057 1.346-4.429v.001a3.65 3.65 0 116.488 3.355c-.097.144-.448 1.18-.643 2.357a22.732 22.732 0 00-.349 3.862c0 .759.05 1.458.136 1.975.062.416.152.688.189.778a3.65 3.65 0 01-2.933 5.825 3.643 3.643 0 01-2.871-1.394zm15.045 43.17c-2.252 4.587-2.808 8.539-2.825 14.051a3.652 3.652 0 01-7.304 0c-.015-5.99.706-11.525 3.585-17.294a3.653 3.653 0 016.544 3.243zm119.553-71.373c-1.43 2.482-3.611 4.2-5.892 5.162-2.29.977-4.671 1.295-6.93 1.299-1.376 0-2.717-.12-3.992-.319-5.1-.799-9.105-1.479-14.12-1.479a3.653 3.653 0 010-7.306c5.707 0 10.241.787 15.25 1.57.939.145 1.916.232 2.862.229 1.545.005 2.973-.238 4.055-.707 1.088-.482 1.836-1.086 2.456-2.121a3.65 3.65 0 014.991-1.321 3.654 3.654 0 011.32 4.993zm36.291-99.068a3.654 3.654 0 017.305 0c-.011 2.417-.314 5.123-.308 7.629-.006 1.749.154 3.355.502 4.447.363 1.122.743 1.58 1.249 1.898a3.651 3.651 0 01-3.787 6.245c-2.401-1.446-3.776-3.781-4.44-5.984-.683-2.233-.822-4.477-.828-6.606.006-3.009.315-5.871.307-7.629zm-5.225 41.29l.004-.002c.054-.026.182-.102.346-.234.328-.257.788-.725 1.235-1.292.904-1.127 1.777-2.644 2.206-3.566a3.652 3.652 0 016.605 3.113 26.739 26.739 0 01-3.094 4.997c-1.434 1.679-2.971 3.543-6.034 4.174l.002.002a3.655 3.655 0 01-4.191-3.02 3.651 3.651 0 012.921-4.172zm-85.978-2.08c.294-2.695.693-5.195 1.358-7.658a37.868 37.868 0 012.805-7.291h-.002a62.618 62.618 0 015.945-9.597c2.283-3.035 4.876-5.849 7.689-8.463 2.755-2.558 5.635-4.967 8.553-7.089a71.349 71.349 0 018.544-5.658 70.015 70.015 0 018.855-4.176c3.046-1.16 6.166-2.17 9.343-3.173 2.967-.938 5.85-1.404 8.607-1.404 2.202 0 4.323.3 6.319.884 4.573 1.329 8.365 4.224 11.153 7.949l.065.089c2.789 3.969 4.246 8.859 4.691 14.062l.011.192c.016.486.023.98.023 1.482 0 4.804-.803 9.684-2.239 14.175l-.041.12c-1.724 4.783-3.425 8.944-5.587 12.693-2.102 3.801-4.705 7.367-8.299 10.779a119.901 119.901 0 01-5.353 4.878 71.59 71.59 0 01-5.896 4.555l-.085.058a76.816 76.816 0 01-6.48 3.771 73.018 73.018 0 01-6.916 3.129 60.332 60.332 0 01-9.485 3.112c-2.582.65-5.244 1.074-7.931 1.193l-.065.002c-.313.007-.636.013-.968.013-2.429 0-4.858-.274-7.223-.878l-.17-.05c-2.638-.813-5.141-2.014-7.354-3.653a20.415 20.415 0 01-5.498-6.164l-.058-.105c-1.4-2.606-2.682-5.177-3.532-8.113a24.581 24.581 0 01-.943-6.745c0-.946.054-1.916.164-2.919zm-20.615 12.897v-.136a3.65 3.65 0 013.618-3.683 3.65 3.65 0 013.684 3.617c.002.077 0 .145.002.202-.023 2.563-.456 4.645-.428 5.886.004.853.129 1.14.235 1.305.112.16.408.554 1.735 1.056a3.653 3.653 0 01-2.523 6.853c-2.268-.823-4.152-2.11-5.321-3.909-1.176-1.792-1.435-3.739-1.43-5.305.027-2.368.449-4.306.428-5.886zm-13.549-19.689a3.652 3.652 0 014.547-2.449 3.653 3.653 0 012.446 4.548c-.528 1.753-.86 3.737-.857 5.604.004 2.956.793 5.391 2.4 6.922a3.651 3.651 0 11-5.069 5.258c-3.515-3.41-4.639-8.009-4.635-12.18.002-2.707.457-5.335 1.168-7.703zm-8.59 110.145h-.278c-4.42-.037-8.795-1.064-12.383-3.768-3.599-2.692-6.079-6.999-6.961-12.48a34.809 34.809 0 01-.456-5.167 11.203 11.203 0 01-.276-2.571c0-.607.042-1.221.119-1.852h.002a3.636 3.636 0 01.587-1.553 36.638 36.638 0 012.692-9.024c2.761-6.196 7.095-11.651 12.323-15.814l.108-.083c4.124-3.018 10.57-8.491 17.909-11.99 4.35-2.061 9.112-3.66 14.126-3.67 3.329-.007 6.771.751 9.963 2.547 7.786 4.225 10.966 11.84 10.863 19.159 0 1.225-.076 2.454-.219 3.684-1.048 8.575-5.171 17.404-9.579 23.465-2.771 3.78-7.21 7.451-12.484 10.72-3.93 2.4-8.313 4.504-12.808 6.009-4.394 1.464-8.894 2.384-13.248 2.388zm60.303 28.56a3.654 3.654 0 01-4.422 2.665c-8.93-2.173-15.689-6.52-21.678-13.205-2.142-2.353-3.642-3.293-5.176-3.837-1.534-.54-3.44-.682-6.285-.677-1.113 0-2.353.017-3.736.02a3.653 3.653 0 010-7.306c1.32.002 2.55-.016 3.736-.018 2.981.007 5.776.083 8.677 1.08 2.903.994 5.575 2.913 8.203 5.842 5.36 5.878 10.358 9.076 18.016 11.013a3.652 3.652 0 012.665 4.423z"/><path fill="#C38031" d="M62.161 305.586c-.91-.704-1.578-.936-2.331-.943-.822 0-2.115.329-4.057 1.882-1.746 1.406-3.474 3.019-5.221 4.754-1.746 1.729-3.513 3.573-5.359 5.433-1.858 1.861-3.81 3.736-5.945 5.485-2.127 1.745-4.417 3.366-6.94 4.739-.233.125-.496.233-.74.352.053.105.106.208.179.33.387.653 1.045 1.499 1.837 2.327a22.238 22.238 0 002.83 2.508c.915.691 1.815 1.124 1.956 1.143.479.128.975.19 1.515.19 1.145.004 2.5-.306 3.957-.876 2.167-.897 4.465-2.276 6.675-3.495 3.405-1.867 6.649-4.164 9.937-6.555 2.695-1.959 5.398-3.953 8.158-5.915-1.578-4.323-4.011-9.579-6.451-11.359zm59.063-37.835l-.081-.054c-1.901-1.209-3.878-1.839-5.981-2.061l-.075-.009a15.823 15.823 0 00-1.982-.118c-1.485 0-3.017.191-4.561.537a15.779 15.779 0 00-5.537 2.42c-1.643 1.251-3.131 2.816-4.381 4.403-1.549 1.969-2.96 3.712-3.982 5.446-1.056 1.724-1.709 3.297-1.899 5.208l-.02.164c-.07.507-.102 1.009-.102 1.521-.007 2.245.673 4.526 1.577 7.02.556 1.541 1.341 3.473 2.172 5.602 2.215-1.7 4.421-3.42 6.614-5.172 3.355-2.683 6.701-5.391 10.052-8.099 2.235-1.807 4.469-3.61 6.685-5.403 2.137-1.724 4.148-3.351 6.018-4.863.866-.704 1.713-1.392 2.551-2.07-.184-.123-.373-.253-.556-.374a237.428 237.428 0 00-6.512-4.098zm220.934-220.36a41.92 41.92 0 00-2.004-8.022 39.091 39.091 0 00-1.513-3.638 3.619 3.619 0 01-1.81-1.898c-.759-1.848-1.741-3.523-2.812-5.041-.901-1.184-1.864-2.19-2.852-3.19-.979-.7-1.661-1.303-2.156-1.62-.552-.347-.733-.408-1.096-.442h-.052c-1.513-.015-4.852.429-8.488.65l-.394.002a54.825 54.825 0 00-2.783-.067c-2.378-.007-4.579.163-5.784.389a50.62 50.62 0 00-5.084 1.325 41.662 41.662 0 00-4.443 1.826 44.35 44.35 0 00-7.48 4.562 46.532 46.532 0 00-5.333 5.255c-1.512 1.917-3.006 4.011-4.64 6.207l-.069.088c-.865 1.094-1.586 2.385-2.15 3.849l-.038.088c-.745 1.792-1.211 3.829-1.386 5.991a23.112 23.112 0 00-.075 1.855c0 1.012.063 2.044.187 3.095.299 2.557.929 5.164 1.782 7.594.845 2.417 1.932 4.642 3.119 6.448.967 1.45 1.923 2.848 2.887 4.17 4.907 6.642 9.552 11.125 17.954 12.666 2.623.468 5.236.761 7.714.761.185 0 .365-.008.548-.012.753-.061 1.509-.115 2.248-.21a41.142 41.142 0 004.135-.753 16.04 16.04 0 002.753-1.143 16.997 16.997 0 002.778-1.878l.104-.083c.871-.665 1.85-1.333 2.91-2.032 1.007-.662 2.044-1.353 3.055-2.117a58.136 58.136 0 003.271-2.604c1.101-.973 2.132-2 2.989-2.971.215-.253.417-.503.607-.747a27.102 27.102 0 001.698-3.749c.042-.114.074-.235.115-.35.06-.27.14-.53.255-.774a36.17 36.17 0 001.358-6.128c.342-2.689.485-5.612.489-8.726v-.11c.015-.492.025-.976.025-1.452 0-2.365-.193-4.72-.539-7.064zm-10.375 9.477l-.067.24a20.992 20.992 0 01-2.712 5.501l-.101.135c-1.266 1.652-2.706 3.1-4.405 4.205l-.098.061a12.039 12.039 0 01-6.121 1.77l-.495-.027c-2.175-.264-4.007-.796-5.573-1.8-1.5-.941-2.689-2.426-3.227-3.934-.559-1.496-.655-2.887-.688-4.23-.01-.269-.01-.489-.01-.664 0-1.211.063-2.434.103-3.69a3.652 3.652 0 017.3.229c-.043 1.337-.101 2.519-.101 3.461 0 .179.002.308.004.379l.006.085c.009 1.034.128 1.635.219 1.849.09.17.006.124.357.382.247.165.923.468 2.205.648.85-.05 1.475-.26 2.219-.694.767-.508 1.617-1.317 2.459-2.404a13.58 13.58 0 001.666-3.382 15.34 15.34 0 00.4-3.321 11.87 11.87 0 00-.721-3.51c-.43-1.197-.96-2.066-1.501-2.669a4.417 4.417 0 00-1.494-1.048 10.37 10.37 0 00-2.186-.527 23.013 23.013 0 00-2.781-.162c-.133 0-.25 0-.389.004a32.973 32.973 0 00-3.223.203c-1.273.177-2.395.487-3.401.928-1.015.51-2.101 1.248-3.149 2.142a28.472 28.472 0 00-2.739 2.713 15.2 15.2 0 00-1.874 2.833 12.936 12.936 0 00-1.032 2.925c-.138.772-.212 1.59-.213 2.431l.003.042c.016.855.099 1.674.267 2.458.221.701.529 1.398.916 2.069.741 1.206 1.607 2.408 2.493 3.64l.1.146a108.962 108.962 0 012.424 3.975l.084.151c.504.962.917 1.831 1.304 2.573.459.903.859 1.449 1.239 1.784.568.376 1.216.654 2.24.779.415.041.869.063 1.352.063.437 0 .909-.019 1.383-.052a38.217 38.217 0 002.453-.284 8.939 8.939 0 002.466-.86c.914-.546 1.834-1.144 2.79-1.716a3.65 3.65 0 113.754 6.263c-.816.487-1.791 1.123-2.899 1.783l-.145.08a16.252 16.252 0 01-4.709 1.645l-.147.024c-.985.14-1.99.269-3.036.349-.63.044-1.266.07-1.91.07-.695 0-1.39-.031-2.129-.104-2.255-.248-4.234-1.043-5.773-2.141l-.191-.144c-1.564-1.27-2.522-2.812-3.232-4.196-.442-.851-.83-1.668-1.238-2.446a97.29 97.29 0 00-2.19-3.591c-.862-1.202-1.811-2.513-2.711-3.975l-.044-.073a17.813 17.813 0 01-1.677-3.836l-.063-.243a20.069 20.069 0 01-.474-4.024c-.004-.1-.003-.164-.003-.183 0-1.309.114-2.615.357-3.901l.021-.103a20.307 20.307 0 011.639-4.642 22.65 22.65 0 012.841-4.3 35.604 35.604 0 013.535-3.513c1.471-1.251 3.039-2.339 4.719-3.178l.138-.066c1.731-.773 3.571-1.269 5.469-1.531l.096-.013a39.857 39.857 0 014.002-.256c.185-.004.355-.004.506-.004 1.258 0 2.488.068 3.724.221 1.361.19 2.687.498 3.95.984l.128.053a11.874 11.874 0 014.041 2.844c1.312 1.455 2.296 3.2 2.981 5.105a19.224 19.224 0 011.159 5.723l.004.217a22.862 22.862 0 01-.644 5.272zm-22.234 40.911c-.955 0-1.903-.022-2.847-.059-3.367-.136-6.684-.506-9.825-1.001.004.263.009.524.009.799 0 3.934-.479 7.661-1.374 11.196l-.072.244c-1.284 3.892-3.282 7.459-5.814 10.677l-.251.288c-2.521 2.597-5.449 4.701-8.662 6.326l-.142.068c-3.092 1.397-6.258 2.557-9.388 3.66-2.654 1.16-5.099 2.552-7.257 4.3-1.995 2.342-3.845 5.121-5.564 8.08-1.776 3.133-3.561 6.193-5.488 9.088l-.138.195c-2.137 2.8-4.521 5.26-7.119 7.361l-.328.237c-2.734 1.756-5.618 3.185-8.599 4.367l-.226.081c-3.006.967-6.063 1.773-9.201 2.512-2.97.633-6.351.906-9.12 1.493-2.642.61-4.207 1.689-4.319 2.12-.244.431-.448 1.324-.438 2.629-.022 2.097.509 4.94.526 7.966 0 .43-.011.865-.04 1.295-.384 5.863-1.231 11.08-3.845 15.654-2.603 4.567-6.933 8.033-12.976 10.47v.001c-4.958 2.151-10.071 3.191-15.303 3.428-.728.04-1.434.049-2.117.049-1.136 0-2.229-.029-3.254-.029-1.121 0-2.162.04-3.072.161-2.342.394-3.472.818-4.783 2.79l-.061.097c-.734 1.124-.993 2.15-1.005 3.434-.004 1.291.337 2.829.944 4.48 1.182 3.295 3.387 6.861 4.859 10.522.289.732.612 1.56.954 2.457 2.495-1.593 4.96-3.157 7.321-4.816 14.924-10.481 28.715-23.401 42.025-36.106 12.652-12.075 25.262-24.639 37.842-36.781 9.577-9.234 19.744-17.532 28.211-27.177 6.544-7.379 14.07-12.281 19.55-18.822 2.116-2.495 3.153-5.472 4.188-9.022.462-1.556.921-3.221 1.51-4.928-.089.004-.178.003-.269.006-1.681.139-3.364.21-5.042.21zm-147.862-55.01c.329-1.35.738-2.642 1.526-3.912a3.652 3.652 0 116.176 3.895c-.112.159-.395.817-.586 1.654-.179.8-.308 1.772-.372 2.736.107 1.746.361 3.4.542 4.454.275 1.336.605 2.664 1.402 4.29.512.935 1.269 2.089 2.294 3.349a14.412 14.412 0 001.89 1.612c.67.477 1.399.896 2.153 1.253 1.67.267 3.291.574 4.864.871 2.575.432 5.022.77 7.291.768.347 0 .689-.009 1.023-.024 2.126-.098 4.4-.421 6.822-.843 2.576-.553 5.269-1.09 8.093-1.536a38.095 38.095 0 015.953-.486c1.159 0 2.337.059 3.524.188 3.208.355 6.311 1.297 9.314 2.616a20.074 20.074 0 01-.446-2.551l-.008-.088a54.522 54.522 0 01-.162-4.211c0-2.533.179-5.089.568-7.591.575-3.869 1.665-7.564 3.25-10.955h.002a3.65 3.65 0 116.614 3.094c-1.268 2.708-2.166 5.724-2.645 8.958a42.143 42.143 0 00-.487 6.494c0 1.216.047 2.428.141 3.628.189 1.783.912 3.87 1.905 5.919 1.03 2.066 2.333 4.094 3.54 5.914.06.088.097.183.147.275 2.172 1.412 4.19 2.49 6.025 3.169a15.723 15.723 0 006.268-.615l.156-.046c.226-.058.455-.106.683-.155-.007-.015-.017-.029-.025-.044l-.156-.325a38.719 38.719 0 01-1.689-5.012 48.932 48.932 0 01-1.295-7.768 74.665 74.665 0 01-.262-6.38c0-.46.005-.917.011-1.369.041-2.549.177-5.081.429-7.532.228-2.507.615-4.992 1.205-7.391.595-2.424 1.418-4.742 2.515-6.954a27.453 27.453 0 014.101-5.987l.003.002a3.652 3.652 0 015.158-.267 3.653 3.653 0 01.263 5.157 20.02 20.02 0 00-2.996 4.366 26.372 26.372 0 00-1.952 5.424c-.486 1.983-.823 4.116-1.027 6.354a80.603 80.603 0 00-.397 6.947 74.79 74.79 0 00-.011 1.25c0 1.932.074 3.859.239 5.757a40.891 40.891 0 001.088 6.558c.356 1.34.782 2.636 1.288 3.861.592 1.072 1.317 2.108 2.115 3.099.894 1.076 1.82 2.169 2.739 3.272 1.145 1.188 2.444 2.197 4.818 3.32 2.755.609 5.25 1.21 7.491 1.789 2.362.608 4.428 1.203 6.214 1.762 2.586.799 5.079 1.531 7.566 2.206-1.75-1.829-3.332-3.795-4.789-5.819a127.703 127.703 0 01-3.077-4.442c-1.577-2.402-2.895-5.138-3.919-8.059-1.018-2.906-1.774-6.007-2.145-9.16a34.301 34.301 0 01-.238-3.948c.002-.82.032-1.641.1-2.451.227-2.79.829-5.535 1.888-8.113.785-2.031 1.831-3.959 3.191-5.688 1.593-2.139 3.133-4.302 4.807-6.424l.104-.123a53.647 53.647 0 016.256-6.168l.127-.101a51.649 51.649 0 018.816-5.399 49.498 49.498 0 015.295-2.175l.09-.03a58.72 58.72 0 015.834-1.523l.068-.015c1.96-.364 4.445-.526 7.21-.53.961 0 1.95.023 2.946.07.119-.008.232-.019.351-.027a74.152 74.152 0 00-3.943-1.649 77.966 77.966 0 00-8.908-2.661 59.648 59.648 0 00-5.734-.601l-.35-.001c-1.969 0-4.003.066-6.106.214a84.859 84.859 0 00-6.698.762 172.14 172.14 0 00-6.419 1.15c-3.202.711-5.731 1.283-7.622 1.704l-.068.013c-1.961.391-3.547.678-5.18.696l-.388-.018c-2.183-.218-4.269-.529-6.339-1.126l-.43-.154c-1.725-.743-3.477-1.579-5.431-2.399-2.106-.786-4.658-1.5-7.628-2.088a175.121 175.121 0 00-10.346-1.408c-3.042-.297-6.1-.54-9.14-.732-.225-.013-.45-.017-.673-.029a3.619 3.619 0 01-.365.651c-1.368 1.932-2.964 3.009-4.033 3.859-1.109.864-1.708 1.423-2.16 2.263-.679 1.29-.807 2.49-.813 4.541 0 .662.014 1.402.014 2.216h.002a3.652 3.652 0 01-7.303 0c0-.71-.016-1.444-.018-2.216-.004-2.28.139-5.109 1.671-7.971.849-1.607 1.953-2.765 2.964-3.649-.257-.002-.516-.012-.773-.013-.348-.005-.707-.005-1.077-.005-3.43 0-6.838.083-10.211.228a416.2 416.2 0 00-6.658.342c-.198.237-.418.46-.684.646-2.099 1.483-3.88 3.315-5.477 5.529a25.43 25.43 0 00-1.813 3.603 34.37 34.37 0 00-1.375 4.135 41.723 41.723 0 00-.645 4.382 37.662 37.662 0 00-.162 4.225c.205 2.619.78 5.157 1.569 7.489a3.653 3.653 0 01-3.459 4.822 3.654 3.654 0 01-3.46-2.486c-.966-2.859-1.685-6.013-1.939-9.362l-.012-.194a45.818 45.818 0 01.191-5.178c.161-1.749.424-3.513.786-5.273l.047-.198a40.784 40.784 0 011.705-5.133 32.203 32.203 0 012.417-4.771l.134-.203c.263-.369.552-.718.829-1.076-1.31.153-2.619.304-3.927.487-5.433.755-10.917 1.74-16.553 2.666-5.702.875-11.419 1.521-17.116 2.02l-.164.011c-2.846.12-5.676.219-8.497.298a143.945 143.945 0 01-8.578-.04 359.421 359.421 0 00-6.753-.196 3.64 3.64 0 01-1.86.783c-.071.067-.175.18-.3.347-.48.625-1.153 1.948-1.721 3.607-.552 1.619-.988 3.558-1.248 5.528a34.492 34.492 0 00-.093 2.569c0 1.069.046 2.116.128 3.109.188 1.831.443 3.528.712 4.909.239 1.338.535 2.413.627 2.6a3.652 3.652 0 01-6.759 2.769c-.476-1.195-.745-2.447-1.044-4.008a62.877 62.877 0 01-.805-5.58l-.007-.064a44.921 44.921 0 01-.156-3.735c0-1.056.039-2.135.122-3.225l.019-.186c.316-2.438.843-4.839 1.598-7.058.253-.724.528-1.409.814-2.074-2.178.25-4.35.62-6.525 1.12-2.365.623-4.703 1.48-7.037 2.542-2.436 1.253-4.904 2.567-7.438 3.841a64.8 64.8 0 01-8.215 3.453l-.295.088a44.92 44.92 0 01-3.652.734 3.592 3.592 0 01-.947.406 9.23 9.23 0 00-1.572.546 3.592 3.592 0 00-.873.668c-.365.454-.747 1.05-1.101 1.739a19.663 19.663 0 00-.995 2.576c-.609 2.041-1.066 4.3-1.35 6.273l-.022.126c-.341 1.905-.547 4-.574 6.163-.003.125-.005.267-.005.425 0 1.971.178 4.025.529 6.04.745 4.337 2.338 8.476 4.442 11.265a3.649 3.649 0 01-2.922 5.839 3.649 3.649 0 01-2.928-1.465c-3.024-4.07-4.866-9.166-5.787-14.387a42.768 42.768 0 01-.635-7.292c0-.173 0-.359.002-.54.034-2.511.268-4.958.676-7.251.331-2.267.839-4.812 1.587-7.321.3-.968.669-1.926 1.079-2.866-1.299.086-2.595.184-3.871.315-2.987.497-5.785 1.306-8.339 2.393a31.142 31.142 0 00-6.871 4.034 34.476 34.476 0 00-5.083 6.168c-1.44 2.244-2.591 4.647-3.502 7.255a40.24 40.24 0 00-1.38 8.15 35.82 35.82 0 00-.016 1.142c0 2.378.199 4.837.611 7.35 1.046 4.876 2.603 8.582 4.84 11.782 2.464 3.043 5.638 5.575 10.092 7.786 2.156.938 4.374 1.65 6.598 2.035 1.148.199 2.299.304 3.47.304.215 0 .434-.021.651-.028 2.093-.089 3.703-.167 6.084-1.336.946-.421 1.887-.924 2.921-1.503 2.149-1.195 4.675-2.717 8.053-3.579l11.968-3.441c3.222-1.091 6.584-1.889 9.99-2.508a5.39 5.39 0 00.489-.54c.061-.079.135-.14.2-.213-2.772-3.591-4.871-7.521-6.73-10.862-2.933-5.402-4.987-12.986-5.021-20.049.008-3.243.441-6.395 1.709-9.227h.002a3.651 3.651 0 016.653 3.009c-.667 1.447-1.07 3.671-1.059 6.218-.034 5.543 1.869 12.512 4.115 16.529 2.737 5.036 5.862 10.578 9.68 13.746 2.531-.269 5.042-.499 7.489-.725a68.893 68.893 0 006.537-.922 106.42 106.42 0 006.263-1.394 78.573 78.573 0 006.044-1.839c2.063-.711 4.158-1.462 6.288-2.181 3.591-1.237 6.864-2.421 10.243-3.324l.16-.039a54.609 54.609 0 014.277-.777 26.856 26.856 0 01-1.514-2.447l-.06-.117c-1.212-2.441-1.732-4.619-2.052-6.222l-.019-.107c-.206-1.212-.526-3.232-.648-5.509v-.404c.079-1.362.249-2.757.56-4.152z"/><path fill="#C8352B" d="M36.751 251.012c5.184-5.742 6.593-11.979 6.778-20.131-.491-.05-.995-.083-1.522-.083-.83 0-1.688.065-2.52.189a20.844 20.844 0 00-4.698 1.331c-1.527.643-2.965 1.449-4.168 2.325a57.294 57.294 0 00-3.884 3.095c-1.15.998-2.142 1.961-2.991 2.919-1.677 1.899-2.837 3.819-3.632 6.086a20.365 20.365 0 00-.902 3.706c-.13.886-.195 1.839-.195 2.883 0 .184.01.384.014.574.189.526.385 1.028.593 1.499.848 1.929 1.752 3.838 2.634 5.739 1.961-1.415 3.92-2.183 5.481-3.006 3.552-1.836 6.265-4.111 9.012-7.126zm-11.8-3.846c.678-.914 1.03-1.877 1.146-3.228v.002a3.65 3.65 0 013.921-3.361 3.65 3.65 0 013.36 3.921c-.182 2.482-1.005 4.972-2.598 7.068a3.647 3.647 0 01-5.115.712 3.65 3.65 0 01-.714-5.114zM216.683 99.602c-.023-.256-.058-.504-.086-.755a52.031 52.031 0 01-1.794 4.367 91.446 91.446 0 01-2.139 4.285 175.722 175.722 0 01-2.052 4.098 83.483 83.483 0 01-2.199 4.075 59.347 59.347 0 01-4.768 7.577 63.2 63.2 0 01-5.735 6.674c-3.019 3.159-6.273 5.826-9.655 8.126-3.421 2.328-6.967 4.184-10.654 5.842-2.51 1.086-5.101 2.142-7.773 3.237-2.83 1.13-5.768 1.927-8.743 2.315l-.078.011c-.981.106-1.957.162-2.931.162h-.029c-.955 0-1.904-.056-2.841-.166a17.699 17.699 0 004.139 1.885c1.682.421 3.468.627 5.314.627.236 0 .482-.006.74-.012 2.12-.095 4.295-.435 6.486-.986a53.065 53.065 0 008.447-2.777l.096-.037a66.094 66.094 0 006.238-2.819 69.784 69.784 0 005.818-3.384 64.45 64.45 0 005.259-4.071 110.934 110.934 0 005.043-4.597c3.061-2.918 5.141-5.764 6.993-9.098 1.845-3.197 3.402-6.93 5.05-11.512 1.198-3.748 1.875-7.922 1.873-11.883 0-.391-.007-.787-.019-1.184zm-56.465 42.59c2.29-.305 4.618-.933 6.872-1.834 2.647-1.084 5.197-2.126 7.564-3.148 3.377-1.521 6.523-3.177 9.492-5.199 3.014-2.052 5.857-4.386 8.528-7.18a56.02 56.02 0 005.111-5.94 52.237 52.237 0 004.214-6.71l.061-.114a76.683 76.683 0 002.046-3.79c.679-1.317 1.35-2.647 1.995-3.983l.064-.126a83.04 83.04 0 002.013-4.028 43.805 43.805 0 001.549-3.762c.367-1.383.555-2.7.555-3.953a11.885 11.885 0 00-.227-2.315 11.588 11.588 0 00-1.728-2.685c-.84-.948-1.992-1.92-3.44-2.859a3.681 3.681 0 01-1.536-1.046 15.856 15.856 0 00-1.609-.088c-1.934 0-4.066.324-6.409 1.064-3.143.992-6.131 1.962-8.909 3.021a62.604 62.604 0 00-7.91 3.733 64.03 64.03 0 00-7.697 5.099l-.084.063c-2.653 1.925-5.339 4.167-7.921 6.568-2.539 2.355-4.834 4.856-6.821 7.498a55.078 55.078 0 00-5.25 8.476l-3.266-1.631 3.259 1.643c-1.024 2.033-1.743 3.925-2.28 5.913-.533 1.974-.88 4.079-1.15 6.545a19.728 19.728 0 00-.118 2.132c0 .761.054 1.474.142 2.167.44.681.654 1.498.574 2.326l.028.035c.28.364.855.92 1.5 1.405 1.519 1.154 3.977 2.227 4.751 2.371a16.38 16.38 0 003.895.453c.692 0 1.405-.039 2.142-.121zm25.067-25.812c-.955 1.592-1.774 3.282-2.254 4.972a3.642 3.642 0 01-4.511 2.515 3.652 3.652 0 01-2.513-4.514c.722-2.532 1.845-4.774 3.013-6.727a3.651 3.651 0 016.265 3.754zm-10.923-14.43a7.197 7.197 0 001.32-2.751v.002a3.652 3.652 0 017.098 1.718 14.612 14.612 0 01-2.645 5.507 3.647 3.647 0 01-2.889 1.413 3.652 3.652 0 01-2.884-5.889zm-16.263 19.904c.837-1.51 1.243-3.725 2.373-6.342a3.65 3.65 0 014.825-1.837 3.654 3.654 0 011.837 4.827c-.688 1.425-1.127 3.934-2.574 6.759a3.65 3.65 0 01-4.933 1.528 3.653 3.653 0 01-1.528-4.935zM41.55 174.384c1.942-.438 3.452-.666 4.585-1.169 3.102-1.31 5.598-3.645 8.308-6.465 2.007-2.06 4.102-4.378 6.731-6.406a3.63 3.63 0 01-1.862-3.163c-.002-1.718-.002-3.432-.002-5.147h.002a3.65 3.65 0 117.302 0v4.869c2.38-1.439 4.318-2.792 5.897-4.305 2.09-2.013 3.688-4.308 5.082-7.96 1.68-4.319 3.464-8.469 3.411-11.637-.032-1.942-.463-3.493-2.024-5.359-.01-.012-.016-.025-.026-.037-1.546.044-3.255.356-5.039.94-2.134.69-4.349 1.774-6.416 3.114-2.064 1.389-4.352 3.172-6.968 4.708a3.622 3.622 0 01-1.541.476c-1.992 2.413-4.157 4.474-5.819 6.318-8.12 8.747-14.495 18.405-16.284 29.479a34.673 34.673 0 00-.344 2.951c1.791-.606 3.487-.884 5.007-1.208v.001zm4.318-16.971c.57-.572 1.29-1.429 1.967-2.37a3.652 3.652 0 015.922 4.275c-.87 1.202-1.782 2.308-2.712 3.246a3.644 3.644 0 01-2.59 1.076 3.652 3.652 0 01-2.587-6.227zm44.171-12.758c.406-1.693.62-3.329.62-4.867 0-.548-.029-1.09-.082-1.617-.214-1.994-.798-3.815-1.94-5.639-.117-.187-.243-.339-.364-.511.019.328.037.657.034.98-.052 5.503-2.417 10.228-3.882 14.221-1.69 4.498-4.01 7.941-6.868 10.658-2.859 2.723-6.124 4.717-9.79 6.808-2.812 1.581-5.261 4.204-8.07 7.136-2.807 2.896-6.035 6.115-10.696 8.11-2.346.983-4.403 1.214-5.87 1.578l-.093.021c-1.864.378-3.447.677-4.493 1.089l-.801.209a.615.615 0 00-.091.018c-.044.029-.19.141-.575.422l-.088.06a4.911 4.911 0 01-.74.422c-.021.78-.044 1.565-.08 2.358-.024.512-.056 1.03-.091 1.547 1.052-.016 2.452-.272 3.909-.686 2.034-.572 4.18-1.419 6.127-2.043 2.305-.748 4.614-1.468 6.868-2.359 2.345-.94 4.602-2.004 6.719-3.359 1.789-1.145 3.346-2.609 5.045-4.327 1.688-1.693 3.505-3.64 5.825-5.477 2.702-2.163 5.134-3.716 7.206-5.295 2.093-1.591 3.844-3.156 5.545-5.531 1.52-2.129 2.925-4.414 4.084-6.763 1.159-2.348 2.07-4.774 2.632-7.163zm3.471 68.846c6.335-.026 10.453-2.037 16.665-5.659 6.029-3.534 11.805-8.33 15.984-14.009 3.869-5.264 6.378-11.205 6.738-17.796a17.729 17.729 0 00-1.687-1.096c-2.056-1.144-4.137-1.616-6.407-1.622-3.394-.011-7.211 1.158-10.992 2.964-6.167 2.914-12.239 7.956-16.638 11.22-4.316 3.436-7.928 8.01-10.16 13.034-1.538 3.479-2.409 7.158-2.492 10.967.058.113.121.209.184.296.235.302.671.641 1.505.946 1.651.634 4.584.778 7.3.755zm19.569-30.381a3.65 3.65 0 014.431 2.65c.157.617.254 1.27.254 1.962.065 1.807-.898 3.96-2.524 5.117-.66.499-1.436.74-2.204.74a3.651 3.651 0 01-2.639-6.177 3.652 3.652 0 012.682-4.292zm-17.448 16.254c.422-.383.657-.74.848-1.272h.003a3.648 3.648 0 014.642-2.257 3.649 3.649 0 012.259 4.642 10.258 10.258 0 01-2.896 4.344 3.64 3.64 0 01-2.426.924 3.643 3.643 0 01-2.729-1.226 3.65 3.65 0 01.299-5.155zm-44.985 35.655c-.613 7.47-2.763 14.636-8.491 20.896-3.13 3.45-6.628 6.423-11.072 8.706-1.944.985-3.617 1.718-4.544 2.428-.676.556-.979.847-1.172 1.411a32.879 32.879 0 011.186 4.094 84.5 84.5 0 002.866-1.035 58.309 58.309 0 005.415-2.331 29.553 29.553 0 004.537-2.746c1.378-1.081 2.692-2.366 3.843-3.645a57.832 57.832 0 003.05-3.663 37.168 37.168 0 002.448-3.655 27.53 27.53 0 001.805-3.717c.491-1.258.873-2.55 1.143-3.922.271-1.378.427-2.831.456-4.356 0-.202.004-.376.002-.53a31.35 31.35 0 00-.33-4.466c-.215-1.44-.625-2.557-1.142-3.469zm81.39-36.863c-4.918 6.665-11.427 12.015-18.164 15.973-6.258 3.698-12.165 6.665-20.257 6.665h-.105c-2.127-.004-4.659-.016-7.218-.498-.128-.026-.259-.057-.389-.086.795 1.905 1.868 3.206 3.129 4.175 1.955 1.483 4.674 2.262 8.013 2.292h.246c3.301.004 7.108-.73 10.934-2.01 3.897-1.304 7.833-3.188 11.301-5.309 4.681-2.864 8.576-6.243 10.406-8.801 3.707-5.002 7.463-13.227 8.224-20.009.113-.968.171-1.914.171-2.834a26.468 26.468 0 00-.064-1.349c-1.448 4.288-3.605 8.241-6.227 11.791zm14.793-123.212c-.616.213-1.242.406-1.864.607a3.614 3.614 0 01-1.764.719h-.002a2.544 2.544 0 00-.491.379c-.468.429-1.102 1.23-1.704 2.218-1.337 2.373-2.578 4.968-3.91 6.865l-.133.173c-1.235 1.516-2.362 3.262-3.79 5.113-1.389 1.796-3.029 3.662-5.327 5.242a45.162 45.162 0 01-3.664 2.228 31.04 31.04 0 01-3.976 1.821 32.327 32.327 0 01-8.79 1.943c-.914.079-1.852.124-2.812.124a30.65 30.65 0 01-3.212-.178c.668 1.4 1.61 2.293 2.93 3.018 1.496.805 3.541 1.251 5.801 1.246 2.473.005 5.171-.529 7.501-1.42 8.335-3.186 14.511-8.65 19.549-15.374 3.576-4.776 6.451-10.281 9.042-15.903-1.119.392-2.245.787-3.384 1.179zm-36.018 20.029a24.946 24.946 0 006.83-1.503 23.723 23.723 0 003.05-1.398 38.347 38.347 0 003.049-1.853c1.37-.943 2.465-2.129 3.657-3.67 1.158-1.491 2.307-3.269 3.817-5.151.394-.556.978-1.606 1.651-2.845a74.85 74.85 0 01-6.596.913c-4.974.447-10.045.927-14.874 1.697l-.281.242a72.156 72.156 0 00-3.062 3.142c-.893 1.157-1.634 2.259-2.169 3.214-.543.956-.893 1.744-1.05 2.302a28.595 28.595 0 00-.503 4.61c1.459.274 2.881.401 4.272.401.729 0 1.457-.035 2.209-.101z"/><path fill="#0A0B09" d="M253.369 111.462h.049a3.652 3.652 0 003.651-3.604c.033-2.526.427-4.659 1.169-6.539a3.652 3.652 0 00-6.789-2.686l-.002-.002c-1.122 2.84-1.64 5.902-1.681 9.134a3.65 3.65 0 003.603 3.697zM81.029 97.559a3.652 3.652 0 00-4.118 3.117c-.317 2.302-.441 4.52-.483 6.775a3.651 3.651 0 003.579 3.722l.067.001a3.655 3.655 0 003.655-3.583c.039-2.085.149-3.988.416-5.914a3.651 3.651 0 00-3.116-4.118zm-42.88 193.816a3.648 3.648 0 00-5.05 1.073c-2.279 3.54-3.716 7.069-5.465 9.599-1.794 2.544-3.421 4.07-6.833 4.847a3.652 3.652 0 001.515 7.144c5.456-1.102 9.091-4.452 11.359-7.884 2.313-3.443 3.741-6.991 5.547-9.727a3.652 3.652 0 00-1.073-5.052zM48.455 163.64c.938 0 1.876-.359 2.59-1.076.93-.938 1.842-2.044 2.712-3.246a3.652 3.652 0 00-5.922-4.275c-.677.941-1.397 1.798-1.967 2.37a3.652 3.652 0 002.587 6.227zm17.708 50.627a3.698 3.698 0 01-.189-.778c-.086-.517-.136-1.216-.136-1.975a22.732 22.732 0 01.349-3.862c.195-1.177.546-2.213.643-2.357a3.653 3.653 0 00-6.488-3.355v-.001c-.688 1.372-1.037 2.788-1.346 4.429a30.386 30.386 0 00-.462 5.146c.096 2.457.082 4.721 1.825 7.184a3.643 3.643 0 002.871 1.394 3.65 3.65 0 002.933-5.825zM25.665 252.28a3.647 3.647 0 005.115-.712c1.593-2.096 2.416-4.586 2.598-7.068a3.65 3.65 0 00-3.36-3.921 3.65 3.65 0 00-3.921 3.361v-.002c-.116 1.351-.468 2.314-1.146 3.228a3.65 3.65 0 00.714 5.114zM179.02 112.626c-1.168 1.953-2.291 4.195-3.013 6.727a3.652 3.652 0 107.024 1.999c.48-1.69 1.299-3.38 2.254-4.972a3.651 3.651 0 00-6.265-3.754zm-67.138 32.125a3.651 3.651 0 002.535-6.281c-1.607-1.531-2.396-3.966-2.4-6.922-.003-1.867.329-3.851.857-5.604a3.653 3.653 0 00-2.446-4.548 3.652 3.652 0 00-4.547 2.449c-.711 2.368-1.166 4.996-1.168 7.703-.004 4.171 1.12 8.77 4.635 12.18a3.637 3.637 0 002.534 1.023zm-1.758 47.393a3.643 3.643 0 002.912 1.445c.768 0 1.544-.241 2.204-.74 1.626-1.157 2.589-3.31 2.524-5.117 0-.692-.097-1.345-.254-1.962a3.65 3.65 0 00-7.113 1.642 3.651 3.651 0 00-.273 4.732zm25.707 22.729c4.408-6.061 8.531-14.89 9.579-23.465.143-1.23.219-2.459.219-3.684.103-7.319-3.077-14.934-10.863-19.159-3.192-1.796-6.634-2.554-9.963-2.547-5.014.01-9.776 1.609-14.126 3.67-7.339 3.499-13.785 8.972-17.909 11.99l-.108.083c-5.228 4.163-9.562 9.618-12.323 15.814a36.638 36.638 0 00-2.692 9.024c-.3.456-.515.976-.587 1.553h-.002c-.077.631-.12 1.245-.12 1.852-.005.881.088 1.746.277 2.571.025 1.704.169 3.429.456 5.167.882 5.481 3.362 9.788 6.961 12.48 3.588 2.704 7.963 3.731 12.383 3.768h.278c4.354-.004 8.854-.924 13.248-2.388 4.495-1.505 8.878-3.609 12.808-6.009 5.274-3.269 9.713-6.94 12.484-10.72zM84.705 211.8a2.252 2.252 0 01-.184-.296c.083-3.809.954-7.488 2.492-10.967 2.232-5.024 5.844-9.598 10.16-13.034 4.399-3.264 10.471-8.306 16.638-11.22 3.781-1.806 7.598-2.975 10.992-2.964 2.27.006 4.351.478 6.407 1.622.611.349 1.168.716 1.687 1.096-.36 6.591-2.869 12.532-6.738 17.796-4.179 5.679-9.955 10.475-15.984 14.009-6.212 3.622-10.33 5.633-16.665 5.659-2.716.023-5.649-.121-7.3-.755-.834-.305-1.27-.644-1.505-.946zm23.52 12.877c-3.826 1.28-7.633 2.014-10.934 2.01h-.246c-3.339-.03-6.058-.809-8.013-2.292-1.261-.969-2.334-2.27-3.129-4.175.13.029.261.06.389.086 2.559.482 5.091.494 7.218.498h.105c8.092 0 13.999-2.967 20.257-6.665 6.737-3.958 13.246-9.308 18.164-15.973 2.622-3.55 4.779-7.503 6.227-11.791.031.44.055.888.064 1.349 0 .92-.058 1.866-.171 2.834-.761 6.782-4.517 15.007-8.224 20.009-1.83 2.558-5.725 5.937-10.406 8.801-3.468 2.121-7.404 4.005-11.301 5.309zm-10.164-18.922a3.64 3.64 0 002.426-.924 10.258 10.258 0 002.896-4.344 3.649 3.649 0 00-2.259-4.642 3.648 3.648 0 00-4.642 2.257h-.003a2.886 2.886 0 01-.848 1.272 3.65 3.65 0 00-.299 5.155 3.643 3.643 0 002.729 1.226zM349.383 46.318a49.534 49.534 0 00-2.351-9.409c-1.081-3.034-2.471-5.877-4.045-8.534a52.233 52.233 0 00-5.39-7.466l-.092-.103a38.985 38.985 0 00-5.303-4.717c-1.884-1.473-3.901-2.823-6.031-4.092l-.182-.101c-2.414-1.261-5.043-2.43-7.868-3.518a85.602 85.602 0 00-9.922-2.963l-.274-.053a65.624 65.624 0 00-6.733-.707l-.143-.006c-.18-.002-.344-.002-.489-.002-2.131 0-4.339.072-6.62.232-2.462.175-4.92.468-7.305.831-2.387.376-4.653.797-6.747 1.21l-.085.016c-3.203.711-5.738 1.286-7.604 1.701h-.001c-1.67.343-2.873.523-3.597.548-1.77-.183-3.276-.425-4.622-.795-1.498-.651-3.255-1.485-5.316-2.351l-.129-.051c-2.583-.969-5.542-1.79-8.885-2.451l-.1-.018a178.2 178.2 0 00-10.9-1.486c-3.163-.311-6.305-.56-9.455-.76A242.123 242.123 0 00217.332.91h-1.131c-3.546 0-7.059.084-10.521.233-3.826.162-7.591.387-11.294.619-3.828.299-7.589.707-11.336 1.23-5.625.783-11.167 1.78-16.694 2.686-5.444.838-10.972 1.464-16.517 1.951-2.783.119-5.554.214-8.305.29a139.689 139.689 0 01-8.123-.037c-2.762-.103-5.538-.199-8.315-.23a109.13 109.13 0 00-1.278-.007 96.27 96.27 0 00-7.115.252l-.09.006c-2.828.281-5.63.747-8.414 1.388l-.107.026c-2.845.749-5.606 1.765-8.296 2.99l-.155.075c-2.541 1.304-5.028 2.631-7.497 3.869a57.708 57.708 0 01-7.143 3.019c-2.38.584-4.98.957-7.883 1.11-3.149.17-6.548.323-10 .683l-.214.028c-3.557.584-6.952 1.552-10.111 2.895a38.597 38.597 0 00-8.64 5.102l-.28.242c-2.391 2.289-4.529 4.841-6.319 7.636-1.786 2.784-3.205 5.763-4.293 8.915l-.064.201a47.473 47.473 0 00-1.67 9.823l-.006.127c-.015.475-.022.95-.022 1.423 0 2.819.241 5.701.722 8.62l.031.163c1.2 5.68 3.159 10.493 6.089 14.637l.132.175c3.197 4.01 7.396 7.293 12.71 9.906l.147.068a38.486 38.486 0 005.365 1.894c-.292.357-.576.72-.844 1.091-3.595 4.957-5.391 11.07-5.406 16.85 0 .802.034 1.604.111 2.401.594 5.15 2.514 8.649 2.392 11.334a7.225 7.225 0 01-.349 2.248c-1.001 3.412-5.206 7.598-8.781 11.353-8.598 9.272-15.991 20.116-18.14 33.274-.439 2.751-.567 5.495-.636 8.166-.08.4-.081.8-.028 1.192-.035 1.69-.06 3.345-.138 4.946-.201 4.507-.809 8.48-2.642 11.699-2.118 3.775-5.583 7.897-8.829 12.382-3.223 4.495-6.32 9.431-7.234 15.313-.539 3.568-.852 7.641-.854 11.842 0 1.601.046 3.226.147 4.853.177 2.929.524 5.849 1.085 8.638.338 1.658.757 3.26 1.256 4.802.064.466.212.899.433 1.29.22.596.451 1.183.701 1.754 1.722 3.904 3.533 7.493 4.839 10.707.086.211.164.415.245.623.074.293.179.574.319.838.922 2.502 1.46 4.755 1.455 6.871 0 .083 0 .187-.003.317-.042 1.527-.402 2.963-1.356 4.609-1.027 1.357-2.726 2.871-4.83 4.476l-.144.116c-2.292 1.953-4.787 4.159-7.052 6.787l-.114.138c-2.206 2.826-4.024 6.036-5.199 9.593l-.033.109C.369 305.883 0 308.284 0 310.702c0 1.231.094 2.468.289 3.709l.025.141c.919 4.704 2.687 8.273 5.195 10.759 2.438 2.619 5.596 3.961 8.657 4.528 1.445.268 2.909.381 4.368.383 1.719-.002 3.43-.16 5.088-.424.336-.059.658-.141.989-.209.245.621.536 1.206.858 1.762.782 1.306 1.757 2.504 2.831 3.635a29.571 29.571 0 003.792 3.353c1.363.982 2.693 1.818 4.352 2.301 1.184.317 2.332.45 3.441.45 2.408-.004 4.624-.603 6.632-1.384l.072-.028c2.872-1.194 5.411-2.752 7.443-3.861 3.893-2.139 7.384-4.631 10.713-7.047 2.383-1.732 4.707-3.438 7.025-5.106 3.101 4.328 7.865 7.037 13.034 7.066l.11.001c4.635 0 9.361-2.479 12.52-7.181 1.878-2.74 2.736-5.821 2.892-8.805.019-.384.028-.756.028-1.122-.002-2.606-.465-5.149-1.145-7.578-.09-.328-.192-.651-.289-.976 2.912-2.2 5.789-4.439 8.627-6.71 3.375-2.697 6.731-5.412 10.082-8.12 2.233-1.804 4.469-3.61 6.687-5.406 2.133-1.721 4.146-3.348 6.026-4.867a984.123 984.123 0 014.293-3.475c2.082 1.424 4.231 2.832 6.468 4.117l.114.063c3.651 1.931 7.578 3.38 11.88 3.972l.142.017c.979.096 1.973.146 2.985.146 3.412 0 7.014-.578 10.787-1.844 5.618-1.837 9.559-5.564 11.563-10.049 1.513-3.325 2.07-6.978 2.075-10.687a42.855 42.855 0 00-.194-3.904c-.271-2.578-.739-5.117-1.322-7.583a95.234 95.234 0 00-1.982-7.09c-.147-.474-.296-.94-.447-1.401.156-.071.31-.153.458-.249 2.786-1.789 5.681-3.595 8.57-5.624 15.495-10.889 29.524-24.066 42.87-36.8 12.729-12.148 25.346-24.723 37.871-36.809 9.269-8.958 19.611-17.37 28.625-27.61 5.618-6.447 13.197-11.371 19.64-18.927 3.228-3.824 4.542-8.033 5.618-11.685.953-3.297 1.763-6.169 3.163-8.529 4.627-1.275 9.074-3.331 13.009-6.53 3.586-2.903 6.327-6.194 8.359-9.749a20.99 20.99 0 001.629-2.519l.089-.184c.54-1.157.934-2.384 1.092-3.692a43.484 43.484 0 001.728-7.648c.391-3.084.544-6.266.549-9.558h.001c.015-.558.025-1.118.025-1.68 0-2.763-.228-5.477-.617-8.137zM58.346 84.373c-4.454-2.211-7.628-4.743-10.092-7.786-2.237-3.2-3.794-6.906-4.84-11.782a45.46 45.46 0 01-.611-7.35c0-.385.004-.767.016-1.142a40.24 40.24 0 011.38-8.15c.911-2.608 2.062-5.011 3.502-7.255a34.476 34.476 0 015.083-6.168 31.142 31.142 0 016.871-4.034c2.554-1.087 5.352-1.896 8.339-2.393 1.276-.131 2.572-.229 3.871-.315-.41.94-.779 1.898-1.079 2.866-.748 2.509-1.256 5.054-1.587 7.321a45.083 45.083 0 00-.676 7.251c-.002.181-.002.367-.002.54 0 2.404.213 4.864.635 7.292.921 5.221 2.763 10.317 5.787 14.387a3.649 3.649 0 002.928 1.465 3.649 3.649 0 002.922-5.839c-2.104-2.789-3.697-6.928-4.442-11.265a35.496 35.496 0 01-.529-6.04c0-.158.002-.3.005-.425.027-2.163.233-4.258.574-6.163l.022-.126c.284-1.973.741-4.232 1.35-6.273.273-.883.613-1.77.995-2.576.354-.689.736-1.285 1.101-1.739.309-.314.586-.512.873-.668a9.23 9.23 0 011.572-.546c.345-.087.655-.234.947-.406a44.92 44.92 0 003.652-.734l.295-.088a64.8 64.8 0 008.215-3.453c2.534-1.274 5.002-2.588 7.438-3.841 2.334-1.062 4.672-1.919 7.037-2.542 2.175-.5 4.347-.87 6.525-1.12-.286.665-.561 1.35-.814 2.074-.755 2.219-1.282 4.62-1.598 7.058l-.019.186a42.53 42.53 0 00-.122 3.225c0 1.286.056 2.54.156 3.735l.007.064c.208 2.062.492 3.967.805 5.58.299 1.561.568 2.813 1.044 4.008a3.654 3.654 0 003.38 2.268 3.652 3.652 0 003.379-5.037c-.092-.187-.388-1.262-.627-2.6a56.444 56.444 0 01-.712-4.909 37.949 37.949 0 01-.128-3.109c0-.852.029-1.715.093-2.569.26-1.97.696-3.909 1.248-5.528.568-1.659 1.241-2.982 1.721-3.607.125-.167.229-.28.3-.347a3.64 3.64 0 001.86-.783c2.226.041 4.47.111 6.753.196a143.945 143.945 0 008.578.04c2.821-.079 5.651-.178 8.497-.298l.164-.011c5.697-.499 11.414-1.145 17.116-2.02 5.636-.926 11.12-1.911 16.553-2.666 1.308-.183 2.617-.334 3.927-.487-.277.358-.566.707-.829 1.076l-.134.203a32.203 32.203 0 00-2.417 4.771 40.784 40.784 0 00-1.705 5.133l-.047.198a48.083 48.083 0 00-.786 5.273 45.818 45.818 0 00-.191 5.178l.012.194c.254 3.349.973 6.503 1.939 9.362a3.654 3.654 0 004.628 2.293 3.653 3.653 0 002.291-4.629c-.789-2.332-1.364-4.87-1.569-7.489a37.662 37.662 0 01.162-4.225c.135-1.454.35-2.918.645-4.382a34.37 34.37 0 011.375-4.135 25.43 25.43 0 011.813-3.603c1.597-2.214 3.378-4.046 5.477-5.529.266-.186.486-.409.684-.646a416.2 416.2 0 016.658-.342c3.373-.145 6.781-.228 10.211-.228.37 0 .729 0 1.077.005.257.001.516.011.773.013-1.011.884-2.115 2.042-2.964 3.649-1.532 2.862-1.675 5.691-1.671 7.971.002.772.018 1.506.018 2.216a3.651 3.651 0 107.303 0h-.002c0-.814-.014-1.554-.014-2.216.006-2.051.134-3.251.813-4.541.452-.84 1.051-1.399 2.16-2.263 1.069-.85 2.665-1.927 4.033-3.859.147-.209.268-.426.365-.651.223.012.448.016.673.029 3.04.192 6.098.435 9.14.732 3.53.379 7.003.845 10.346 1.408 2.97.588 5.522 1.302 7.628 2.088 1.954.82 3.706 1.656 5.431 2.399l.43.154c2.07.597 4.156.908 6.339 1.126l.388.018c1.633-.018 3.219-.305 5.18-.696l.068-.013c1.891-.421 4.42-.993 7.622-1.704a172.14 172.14 0 016.419-1.15 84.859 84.859 0 016.698-.762 86.885 86.885 0 016.456-.213c1.984.111 3.901.319 5.734.601 3.373.8 6.301 1.705 8.908 2.661a74.152 74.152 0 013.943 1.649c-.119.008-.232.019-.351.027a62.718 62.718 0 00-2.946-.07c-2.765.004-5.25.166-7.21.53l-.068.015a58.72 58.72 0 00-5.834 1.523l-.09.03a49.498 49.498 0 00-5.295 2.175 51.649 51.649 0 00-8.816 5.399l-.127.101a53.647 53.647 0 00-6.256 6.168l-.104.123c-1.674 2.122-3.214 4.285-4.807 6.424-1.36 1.729-2.406 3.657-3.191 5.688-1.059 2.578-1.661 5.323-1.888 8.113-.068.81-.098 1.631-.1 2.451.002 1.318.084 2.637.238 3.948.371 3.153 1.127 6.254 2.145 9.16 1.024 2.921 2.342 5.657 3.919 8.059 1.013 1.521 2.026 3 3.077 4.442 1.457 2.024 3.039 3.99 4.789 5.819a226.668 226.668 0 01-7.566-2.206 125.902 125.902 0 00-6.214-1.762 218.643 218.643 0 00-7.491-1.789c-2.374-1.123-3.673-2.132-4.818-3.32-.919-1.103-1.845-2.196-2.739-3.272-.798-.991-1.523-2.027-2.115-3.099a30.934 30.934 0 01-1.288-3.861 40.891 40.891 0 01-1.088-6.558 66.59 66.59 0 01-.239-5.757c0-.414.004-.832.011-1.25.039-2.369.164-4.694.397-6.947.204-2.238.541-4.371 1.027-6.354a26.372 26.372 0 011.952-5.424 20.02 20.02 0 012.996-4.366 3.653 3.653 0 00-.263-5.157 3.652 3.652 0 00-5.158.267l-.003-.002a27.453 27.453 0 00-4.101 5.987c-1.097 2.212-1.92 4.53-2.515 6.954-.59 2.399-.977 4.884-1.205 7.391a87.772 87.772 0 00-.429 7.532c-.006.452-.011.909-.011 1.369 0 2.114.079 4.248.262 6.38.226 2.64.659 5.242 1.295 7.768a38.719 38.719 0 001.689 5.012l.156.325c.008.015.018.029.025.044-.228.049-.457.097-.683.155l-.156.046a15.723 15.723 0 01-6.268.615c-1.835-.679-3.853-1.757-6.025-3.169-.05-.092-.087-.187-.147-.275-1.207-1.82-2.51-3.848-3.54-5.914-.993-2.049-1.716-4.136-1.905-5.919a46.49 46.49 0 01-.141-3.628c0-2.185.155-4.374.487-6.494.479-3.234 1.377-6.25 2.645-8.958a3.65 3.65 0 10-6.614-3.094h-.002c-1.585 3.391-2.675 7.086-3.25 10.955a49.57 49.57 0 00-.568 7.591c0 1.411.054 2.818.162 4.211l.008.088c.092.872.248 1.72.446 2.551-3.003-1.319-6.106-2.261-9.314-2.616a32.626 32.626 0 00-3.524-.188c-2.04 0-4.031.182-5.953.486-2.824.446-5.517.983-8.093 1.536-2.422.422-4.696.745-6.822.843-.334.015-.676.024-1.023.024-2.269.002-4.716-.336-7.291-.768-1.573-.297-3.194-.604-4.864-.871a14.198 14.198 0 01-2.153-1.253 14.412 14.412 0 01-1.89-1.612c-1.025-1.26-1.782-2.414-2.294-3.349-.797-1.626-1.127-2.954-1.402-4.29-.181-1.054-.435-2.708-.542-4.454.064-.964.193-1.936.372-2.736.191-.837.474-1.495.586-1.654a3.65 3.65 0 10-6.176-3.895c-.788 1.27-1.197 2.562-1.526 3.912a25.984 25.984 0 00-.56 4.152v.404c.122 2.277.442 4.297.648 5.509l.019.107c.32 1.603.84 3.781 2.052 6.222l.06.117c.419.774.926 1.595 1.514 2.447a54.609 54.609 0 00-4.277.777l-.16.039c-3.379.903-6.652 2.087-10.243 3.324-2.13.719-4.225 1.47-6.288 2.181a78.573 78.573 0 01-6.044 1.839 106.42 106.42 0 01-6.263 1.394 68.893 68.893 0 01-6.537.922c-2.447.226-4.958.456-7.489.725-3.818-3.168-6.943-8.71-9.68-13.746-2.246-4.017-4.149-10.986-4.115-16.529-.011-2.547.392-4.771 1.059-6.218a3.651 3.651 0 00-6.653-3.009h-.002c-1.268 2.832-1.701 5.984-1.709 9.227.034 7.063 2.088 14.647 5.021 20.049 1.859 3.341 3.958 7.271 6.73 10.862-.065.073-.139.134-.2.213a5.39 5.39 0 01-.489.54c-3.406.619-6.768 1.417-9.99 2.508l-11.968 3.441c-3.378.862-5.904 2.384-8.053 3.579-1.034.579-1.975 1.082-2.921 1.503-2.381 1.169-3.991 1.247-6.084 1.336-.217.007-.436.028-.651.028-1.171 0-2.322-.105-3.47-.304-2.224-.385-4.442-1.097-6.598-2.035zm50.256 18.013c.96 0 1.898-.045 2.812-.124a32.327 32.327 0 008.79-1.943 31.04 31.04 0 003.976-1.821 45.162 45.162 0 003.664-2.228c2.298-1.58 3.938-3.446 5.327-5.242 1.428-1.851 2.555-3.597 3.79-5.113l.133-.173c1.332-1.897 2.573-4.492 3.91-6.865.602-.988 1.236-1.789 1.704-2.218.232-.218.416-.341.491-.379h.002a3.614 3.614 0 001.764-.719c.622-.201 1.248-.394 1.864-.607 1.139-.392 2.265-.787 3.384-1.179-2.591 5.622-5.466 11.127-9.042 15.903-5.038 6.724-11.214 12.188-19.549 15.374-2.33.891-5.028 1.425-7.501 1.42-2.26.005-4.305-.441-5.801-1.246-1.32-.725-2.262-1.618-2.93-3.018a30.65 30.65 0 003.212.178zm-4.272-7.703c.049-1.574.215-3.16.503-4.61.157-.558.507-1.346 1.05-2.302.535-.955 1.276-2.057 2.169-3.214a72.156 72.156 0 013.062-3.142l.281-.242c4.829-.77 9.9-1.25 14.874-1.697a74.85 74.85 0 006.596-.913c-.673 1.239-1.257 2.289-1.651 2.845-1.51 1.882-2.659 3.66-3.817 5.151-1.192 1.541-2.287 2.727-3.657 3.67a38.347 38.347 0 01-3.049 1.853 23.723 23.723 0 01-3.05 1.398 24.946 24.946 0 01-6.83 1.503c-.752.066-1.48.101-2.209.101-1.391 0-2.813-.127-4.272-.401zM36.887 172.64c1.789-11.074 8.164-20.732 16.284-29.479 1.662-1.844 3.827-3.905 5.819-6.318a3.622 3.622 0 001.541-.476c2.616-1.536 4.904-3.319 6.968-4.708 2.067-1.34 4.282-2.424 6.416-3.114 1.784-.584 3.493-.896 5.039-.94.01.012.016.025.026.037 1.561 1.866 1.992 3.417 2.024 5.359.053 3.168-1.731 7.318-3.411 11.637-1.394 3.652-2.992 5.947-5.082 7.96-1.579 1.513-3.517 2.866-5.897 4.305v-4.869a3.651 3.651 0 10-7.302 0h-.002c0 1.715 0 3.429.002 5.147a3.63 3.63 0 001.862 3.163c-2.629 2.028-4.724 4.346-6.731 6.406-2.71 2.82-5.206 5.155-8.308 6.465-1.133.503-2.643.731-4.585 1.169v-.001c-1.52.324-3.216.602-5.007 1.208.08-1.022.188-2.01.344-2.951zm-.717 13.471c.036-.793.059-1.578.08-2.358.318-.15.576-.304.74-.422l.088-.06c.385-.281.531-.393.575-.422a.615.615 0 01.091-.018l.801-.209c1.046-.412 2.629-.711 4.493-1.089l.093-.021c1.467-.364 3.524-.595 5.87-1.578 4.661-1.995 7.889-5.214 10.696-8.11 2.809-2.932 5.258-5.555 8.07-7.136 3.666-2.091 6.931-4.085 9.79-6.808 2.858-2.717 5.178-6.16 6.868-10.658 1.465-3.993 3.83-8.718 3.882-14.221.003-.323-.015-.652-.034-.98.121.172.247.324.364.511 1.142 1.824 1.726 3.645 1.94 5.639.053.527.082 1.069.082 1.617 0 1.538-.214 3.174-.62 4.867-.562 2.389-1.473 4.815-2.632 7.163-1.159 2.349-2.564 4.634-4.084 6.763-1.701 2.375-3.452 3.94-5.545 5.531-2.072 1.579-4.504 3.132-7.206 5.295-2.32 1.837-4.137 3.784-5.825 5.477-1.699 1.718-3.256 3.182-5.045 4.327-2.117 1.355-4.374 2.419-6.719 3.359-2.254.891-4.563 1.611-6.868 2.359-1.947.624-4.093 1.471-6.127 2.043-1.457.414-2.857.67-3.909.686.035-.517.067-1.035.091-1.547zm-16.546 69.294a22.853 22.853 0 01-.593-1.499c-.004-.19-.014-.39-.014-.574 0-1.044.065-1.997.195-2.883.203-1.343.504-2.57.902-3.706.795-2.267 1.955-4.187 3.632-6.086.849-.958 1.841-1.921 2.991-2.919a57.294 57.294 0 013.884-3.095c1.203-.876 2.641-1.682 4.168-2.325a20.844 20.844 0 014.698-1.331c.832-.124 1.69-.189 2.52-.189.527 0 1.031.033 1.522.083-.185 8.152-1.594 14.389-6.778 20.131-2.747 3.015-5.46 5.29-9.012 7.126-1.561.823-3.52 1.591-5.481 3.006-.882-1.901-1.786-3.81-2.634-5.739zm31.022-20.376c.517.912.927 2.029 1.142 3.469a31.35 31.35 0 01.33 4.466c.002.154-.002.328-.002.53a25.016 25.016 0 01-.456 4.356 22.836 22.836 0 01-1.143 3.922 27.53 27.53 0 01-1.805 3.717 37.168 37.168 0 01-2.448 3.655 57.832 57.832 0 01-3.05 3.663c-1.151 1.279-2.465 2.564-3.843 3.645a29.553 29.553 0 01-4.537 2.746 58.309 58.309 0 01-5.415 2.331 84.5 84.5 0 01-2.866 1.035 32.879 32.879 0 00-1.186-4.094c.193-.564.496-.855 1.172-1.411.927-.71 2.6-1.443 4.544-2.428 4.444-2.283 7.942-5.256 11.072-8.706 5.728-6.26 7.878-13.426 8.491-20.896zm9.808 87.831c-3.288 2.391-6.532 4.688-9.937 6.555-2.21 1.219-4.508 2.598-6.675 3.495-1.457.57-2.812.88-3.957.875-.54 0-1.036-.061-1.515-.189-.141-.019-1.041-.452-1.956-1.143a22.238 22.238 0 01-2.83-2.508c-.792-.828-1.45-1.674-1.837-2.327a4.948 4.948 0 01-.179-.33c.244-.119.507-.227.74-.352 2.523-1.373 4.813-2.994 6.94-4.739 2.135-1.749 4.087-3.624 5.945-5.485 1.846-1.86 3.613-3.704 5.359-5.433 1.747-1.735 3.475-3.348 5.221-4.754 1.942-1.553 3.235-1.882 4.057-1.882.753.007 1.421.239 2.331.943 2.44 1.78 4.873 7.036 6.451 11.359-2.76 1.962-5.463 3.956-8.158 5.915zm65.287-48.567c-1.87 1.512-3.881 3.139-6.018 4.863-2.216 1.793-4.45 3.596-6.685 5.403-3.351 2.708-6.697 5.416-10.052 8.099a431.052 431.052 0 01-6.614 5.172c-.831-2.129-1.616-4.061-2.172-5.602-.904-2.494-1.584-4.775-1.577-7.02 0-.512.032-1.014.102-1.521l.02-.164c.19-1.911.843-3.484 1.899-5.208 1.022-1.734 2.433-3.477 3.982-5.446 1.25-1.587 2.738-3.152 4.381-4.403a15.779 15.779 0 015.537-2.42c1.544-.346 3.076-.537 4.561-.537.68 0 1.34.037 1.982.118l.075.009c2.103.222 4.08.852 5.981 2.061l.081.054c2.204 1.33 4.356 2.7 6.512 4.098.183.121.372.251.556.374-.838.678-1.685 1.366-2.551 2.07zm46.19-4.417c-1.316 2.774-3.275 4.784-7.24 6.163-3.091 1.033-5.873 1.461-8.467 1.463-.752 0-1.49-.036-2.214-.106-3.256-.463-6.29-1.557-9.341-3.162-2.102-1.211-4.204-2.588-6.329-4.049-2.208-1.484-4.385-2.98-6.606-4.447a246.993 246.993 0 00-6.697-4.217c-2.893-1.843-6.023-2.828-9.102-3.147-.956-.117-1.9-.168-2.83-.168-2.101 0-4.165.264-6.155.712a22.892 22.892 0 00-8.234 3.642l-.099.072c-2.287 1.737-4.179 3.754-5.734 5.723-1.481 1.899-3.105 3.854-4.492 6.183-1.377 2.226-2.591 4.967-2.91 8.225a18.454 18.454 0 00-.161 2.445c.006 3.692 1.059 6.84 2.009 9.497.693 1.915 1.571 4.048 2.452 6.321.882 2.281 1.758 4.658 2.389 6.967.562 1.994.881 3.905.881 5.63 0 .253-.007.498-.02.732-.109 1.917-.594 3.55-1.629 5.078-2.135 3.042-4.363 3.954-6.598 3.992-3.292.04-7.087-2.53-8.636-6.985-1.101-3.13-2.654-7.497-5.026-11.352-1.198-1.929-2.604-3.758-4.442-5.224-1.815-1.457-4.199-2.536-6.87-2.528-2.947 0-5.866 1.259-8.636 3.498-2.041 1.643-3.944 3.435-5.783 5.259-1.837 1.819-3.616 3.676-5.396 5.468-1.769 1.776-3.552 3.478-5.398 4.989-1.855 1.523-3.771 2.867-5.785 3.964-1.509.823-3.952 1.662-6.405 2.081a25.013 25.013 0 01-3.893.322 16.356 16.356 0 01-3.019-.256c-2.04-.395-3.543-1.121-4.699-2.369l-.127-.13c-1.247-1.228-2.448-3.243-3.196-6.958a16.506 16.506 0 01-.19-2.502c0-1.675.249-3.35.762-5.084.871-2.6 2.226-5.021 3.941-7.233 1.819-2.099 3.972-4.033 6.135-5.872 2.34-1.807 4.55-3.675 6.28-6.01l.186-.277a17.015 17.015 0 002.279-6.121 82.299 82.299 0 005.105-1.74 66.043 66.043 0 006.069-2.613 36.7 36.7 0 005.736-3.491l.077-.058c1.807-1.418 3.401-2.991 4.772-4.517a64.74 64.74 0 003.447-4.139 44.34 44.34 0 002.936-4.395 34.144 34.144 0 002.29-4.721 30.16 30.16 0 001.508-5.172c.356-1.81.558-3.699.593-5.669 0-.211.004-.407.004-.626 0-1.773-.134-3.61-.408-5.517-.396-2.704-1.31-5.096-2.659-7.077a14.993 14.993 0 00-5.076-4.607c-1.958-1.093-4.089-1.746-6.256-2.064a21.723 21.723 0 00-3.017-.203c-1.208 0-2.418.095-3.617.271a28.22 28.22 0 00-6.414 1.811 28.373 28.373 0 00-5.663 3.167 64.275 64.275 0 00-4.378 3.492c-1.319 1.146-2.542 2.324-3.65 3.574a27.253 27.253 0 00-1.652 2.052c-.004-.284-.013-.57-.013-.854 0-3.834.291-7.58.774-10.75.563-3.876 2.898-7.95 5.935-12.134 3.01-4.194 6.624-8.415 9.263-13.06 1.125-1.999 1.877-4.058 2.405-6.13.313.02.623.035.93.035 2.14-.006 4.159-.448 6.037-.968.79-.225 1.556-.469 2.289-.714-.036 2.368-.228 3.94-1.01 5.447a3.65 3.65 0 001.571 4.919 3.648 3.648 0 004.92-1.569c1.832-3.559 1.823-6.981 1.83-10.048v-.172c0-.344-.063-.668-.151-.982a79.618 79.618 0 004.269-1.527c2.622-1.052 5.316-2.305 7.957-3.996 2.55-1.633 4.512-3.541 6.288-5.328 1.785-1.801 3.385-3.488 5.194-4.912 2.355-1.893 4.671-3.373 7.073-5.19 2.385-1.805 4.849-3.981 7.073-7.105 1.716-2.407 3.327-5.014 4.69-7.777 1.364-2.767 2.478-5.688 3.187-8.705.517-2.149.817-4.348.817-6.555 0-.795-.04-1.585-.12-2.364-.307-3-1.264-5.997-3.009-8.759-1.686-2.736-3.975-4.82-6.536-6.152-2.526-1.381-5.276-2.053-8.006-2.207a19.382 19.382 0 00-.945-.023c-2.597.002-5.18.499-7.693 1.318-2.552.832-5.045 2.04-7.419 3.505.005-.17.018-.344.018-.512-.12-5.243-2.239-8.837-2.425-12.022a17.671 17.671 0 01-.081-1.713c-.015-4.22 1.434-9.053 4.003-12.541 1.437-1.929 3.111-3.43 5.073-4.415a26.019 26.019 0 002.263-.302c1.364-.246 2.6-.611 3.734-1.04a3.613 3.613 0 001.674-.708c1.15-.532 2.193-1.103 3.149-1.637 2.282-1.286 4.128-2.34 6.356-2.891l.126-.035 11.521-3.312c-.04.071-.085.142-.125.212-.719 1.278-1.368 2.6-1.769 4.1l-.046.205a36.067 36.067 0 00-.692 7.909c.049 2.623.366 5.272 1.263 7.719a13.884 13.884 0 006.61 7.548c2.874 1.522 6.071 2.101 9.236 2.105 3.481-.004 6.959-.707 10.102-1.9 9.874-3.757 17.196-10.32 22.798-17.825 5.505-7.379 9.258-15.752 12.614-23.488a69.315 69.315 0 013.184-.95c2.43-.53 4.663-.893 6.915-.893.523 0 1.053.02 1.591.064 2.913.228 5.864.788 8.926 1.368l.074.013c2.703.451 5.556.874 8.542.876.446 0 .901-.009 1.36-.031 2.635-.122 5.218-.506 7.786-.95l.141-.028c2.537-.545 5.122-1.062 7.79-1.482a30.704 30.704 0 014.814-.399c.911 0 1.82.049 2.727.147 2.352.257 4.771.966 7.269 2.074 3.228 2.034 6.357 4.492 9.37 6.997l.245.188c3.244 2.257 6.395 4.051 9.641 5.182l.756.176a22.99 22.99 0 009.588-.812 8.307 8.307 0 011.986-.259c.863.004 1.593.155 2.268.478.15.168.311.334.47.502l.039.046c.014.017.032.028.047.045 1.777 1.849 4.13 3.644 7.461 5.124l.716.236a221.68 221.68 0 017.637 1.816c2.243.579 4.189 1.141 5.872 1.664 3.287 1.015 6.511 1.986 9.805 2.826 1.02.268 2.053.523 3.094.769a3.625 3.625 0 00-.178 1.132c.007.361.012.706.012 1.036-.003 3.304-.394 6.369-1.123 9.286-.975 2.903-2.478 5.616-4.46 8.169-1.887 1.909-4.06 3.473-6.523 4.727-2.778 1.254-5.768 2.353-8.858 3.439l-.243.096c-3.261 1.416-6.453 3.211-9.35 5.619l-.427.42c-2.492 2.876-4.63 6.11-6.573 9.448-1.741 3.077-3.426 5.958-5.167 8.58-1.741 2.265-3.642 4.226-5.686 5.9-2.211 1.401-4.569 2.574-7.071 3.572-2.72.87-5.546 1.618-8.451 2.3-2.164.483-5.64.775-9.008 1.47l-.117.026c-3.316.861-6.96 2.078-9.12 5.759-1.116 2.117-1.317 4.218-1.324 6.111.02 3.048.549 5.901.527 7.966.002.292-.007.566-.024.817-.341 5.454-1.167 9.527-2.888 12.492-1.726 2.955-4.368 5.277-9.47 7.377l-.077.03c-4.079 1.763-8.232 2.626-12.771 2.838-.56.03-1.132.04-1.748.04-1.007 0-2.101-.028-3.254-.028-1.275 0-2.629.036-4.04.224-3.35.368-7.484 2.015-9.976 6.11-1.572 2.356-2.22 5.002-2.208 7.45.005 2.514.61 4.843 1.387 6.983 1.56 4.224 3.865 7.95 4.927 10.701 1.027 2.602 2.429 6.248 3.72 10.403a88.822 88.822 0 011.839 6.574c.527 2.227.936 4.472 1.161 6.628.1 1.068.159 2.147.159 3.181.003 2.972-.47 5.592-1.415 7.65zM313.35 102.491c-1.035 3.55-2.072 6.527-4.188 9.022-5.48 6.541-13.006 11.443-19.55 18.822-8.467 9.645-18.634 17.943-28.211 27.177-12.58 12.142-25.19 24.706-37.842 36.781-13.31 12.705-27.101 25.625-42.025 36.106-2.361 1.659-4.826 3.223-7.321 4.816-.342-.897-.665-1.725-.954-2.457-1.472-3.661-3.677-7.227-4.859-10.522-.607-1.651-.948-3.189-.944-4.48.012-1.284.271-2.31 1.005-3.434l.061-.097c1.311-1.972 2.441-2.396 4.783-2.79.91-.121 1.951-.161 3.072-.161 1.025 0 2.118.029 3.254.029.683 0 1.389-.009 2.117-.049 5.232-.237 10.345-1.277 15.303-3.428v-.001c6.043-2.437 10.373-5.903 12.976-10.47 2.614-4.574 3.461-9.791 3.845-15.654.029-.43.04-.865.04-1.295-.017-3.026-.548-5.869-.526-7.966-.01-1.305.194-2.198.438-2.629.112-.431 1.677-1.51 4.319-2.12 2.769-.587 6.15-.86 9.12-1.493 3.138-.739 6.195-1.545 9.201-2.512l.226-.081c2.981-1.182 5.865-2.611 8.599-4.367l.328-.237c2.598-2.101 4.982-4.561 7.119-7.361l.138-.195c1.927-2.895 3.712-5.955 5.488-9.088 1.719-2.959 3.569-5.738 5.564-8.08 2.158-1.748 4.603-3.14 7.257-4.3 3.13-1.103 6.296-2.263 9.388-3.66l.142-.068c3.213-1.625 6.141-3.729 8.662-6.326l.251-.288c2.532-3.218 4.53-6.785 5.814-10.677l.072-.244a45.427 45.427 0 001.374-11.196c0-.275-.005-.536-.009-.799 3.141.495 6.458.865 9.825 1.001.944.037 1.892.059 2.847.059 1.678 0 3.361-.071 5.042-.21.091-.003.18-.002.269-.006-.589 1.707-1.048 3.372-1.51 4.928zm29.322-46.584v.11c-.004 3.114-.147 6.037-.489 8.726a36.17 36.17 0 01-1.358 6.128 3.678 3.678 0 00-.255.774c-.041.115-.073.236-.115.35a27.102 27.102 0 01-1.698 3.749c-.19.244-.392.494-.607.747a34.703 34.703 0 01-2.989 2.971 58.136 58.136 0 01-3.271 2.604c-1.011.764-2.048 1.455-3.055 2.117-1.06.699-2.039 1.367-2.91 2.032l-.104.083a16.997 16.997 0 01-2.778 1.878 16.04 16.04 0 01-2.753 1.143 41.142 41.142 0 01-4.135.753c-.739.095-1.495.149-2.248.21-.183.004-.363.012-.548.012-2.478 0-5.091-.293-7.714-.761-8.402-1.541-13.047-6.024-17.954-12.666-.964-1.322-1.92-2.72-2.887-4.17-1.187-1.806-2.274-4.031-3.119-6.448-.853-2.43-1.483-5.037-1.782-7.594a26.412 26.412 0 01-.187-3.095c0-.628.026-1.246.075-1.855.175-2.162.641-4.199 1.386-5.991l.038-.088c.564-1.464 1.285-2.755 2.15-3.849l.069-.088c1.634-2.196 3.128-4.29 4.64-6.207a46.532 46.532 0 015.333-5.255 44.35 44.35 0 017.48-4.562 41.662 41.662 0 014.443-1.826 50.62 50.62 0 015.084-1.325c1.205-.226 3.406-.396 5.784-.389.905-.003 1.842.022 2.783.067l.394-.002c3.636-.221 6.975-.665 8.488-.65h.052c.363.034.544.095 1.096.442.495.317 1.177.92 2.156 1.62.988 1 1.951 2.006 2.852 3.19 1.071 1.518 2.053 3.193 2.812 5.041a3.619 3.619 0 001.81 1.898 39.091 39.091 0 011.513 3.638 41.92 41.92 0 012.004 8.022c.346 2.344.539 4.699.539 7.064 0 .476-.01.96-.025 1.452zm-187.743 202.22c-7.658-1.937-12.656-5.135-18.016-11.013-2.628-2.929-5.3-4.848-8.203-5.842-2.901-.997-5.696-1.073-8.677-1.08-1.186.002-2.416.02-3.736.018a3.653 3.653 0 000 7.306c1.383-.003 2.623-.02 3.736-.02 2.845-.005 4.751.137 6.285.677 1.534.544 3.034 1.484 5.176 3.837 5.989 6.685 12.748 11.032 21.678 13.205a3.654 3.654 0 004.422-2.665 3.652 3.652 0 00-2.665-4.423zM331.264 45.656c-.685-1.905-1.669-3.65-2.981-5.105a11.874 11.874 0 00-4.041-2.844l-.128-.053c-1.263-.486-2.589-.794-3.95-.984a30.145 30.145 0 00-3.724-.221 39.857 39.857 0 00-4.508.26l-.096.013c-1.898.262-3.738.758-5.469 1.531l-.138.066c-1.68.839-3.248 1.927-4.719 3.178a35.604 35.604 0 00-3.535 3.513 22.65 22.65 0 00-2.841 4.3 20.307 20.307 0 00-1.639 4.642l-.021.103a21.002 21.002 0 00-.357 3.901c0 .019-.001.083.003.183.027 1.298.163 2.651.474 4.024l.063.243a17.813 17.813 0 001.677 3.836l.044.073c.9 1.462 1.849 2.773 2.711 3.975a97.29 97.29 0 012.19 3.591c.408.778.796 1.595 1.238 2.446.71 1.384 1.668 2.926 3.232 4.196l.191.144c1.539 1.098 3.518 1.893 5.773 2.141.739.073 1.434.104 2.129.104.644 0 1.28-.026 1.91-.07a46.765 46.765 0 003.036-.349l.147-.024c1.732-.319 3.313-.9 4.709-1.645l.145-.08c1.108-.66 2.083-1.296 2.899-1.783a3.65 3.65 0 10-3.754-6.263c-.956.572-1.876 1.17-2.79 1.716a8.939 8.939 0 01-2.466.86c-.884.126-1.712.228-2.453.284a20.21 20.21 0 01-1.383.052c-.483 0-.937-.022-1.352-.063-1.024-.125-1.672-.403-2.24-.779-.38-.335-.78-.881-1.239-1.784-.387-.742-.8-1.611-1.304-2.573l-.084-.151a108.962 108.962 0 00-2.424-3.975l-.1-.146c-.886-1.232-1.752-2.434-2.493-3.64a10.44 10.44 0 01-.916-2.069 12.86 12.86 0 01-.267-2.458l-.003-.042c.001-.841.075-1.659.213-2.431.218-.986.558-1.961 1.032-2.925a15.2 15.2 0 011.874-2.833 28.472 28.472 0 012.739-2.713c1.048-.894 2.134-1.632 3.149-2.142 1.006-.441 2.128-.751 3.401-.928a32.973 32.973 0 013.223-.203c.139-.004.256-.004.389-.004.985 0 1.926.057 2.781.162a10.37 10.37 0 012.186.527c.63.282 1.075.604 1.494 1.048.541.603 1.071 1.472 1.501 2.669a11.87 11.87 0 01.721 3.51 15.34 15.34 0 01-.4 3.321 13.58 13.58 0 01-1.666 3.382c-.842 1.087-1.692 1.896-2.459 2.404-.744.434-1.369.644-2.219.694-1.282-.18-1.958-.483-2.205-.648-.351-.258-.267-.212-.357-.382-.091-.214-.21-.815-.219-1.849l-.006-.085c-.002-.071-.004-.2-.004-.379 0-.942.058-2.124.101-3.461a3.652 3.652 0 00-7.3-.229c-.04 1.256-.103 2.479-.103 3.69 0 .175 0 .395.01.664.033 1.343.129 2.734.688 4.23.538 1.508 1.727 2.993 3.227 3.934 1.566 1.004 3.398 1.536 5.573 1.8l.495.027a12.039 12.039 0 006.121-1.77l.098-.061c1.699-1.105 3.139-2.553 4.405-4.205l.101-.135a20.992 20.992 0 002.712-5.501l.067-.24c.447-1.815.628-3.584.644-5.272l-.004-.217a19.224 19.224 0 00-1.159-5.723zm-156.252 61.418a3.641 3.641 0 002.234.765c1.091 0 2.17-.486 2.889-1.413a14.612 14.612 0 002.645-5.507 3.652 3.652 0 00-7.098-1.718v-.002a7.197 7.197 0 01-1.32 2.751 3.652 3.652 0 00.65 5.124zm48.09 29.815a3.655 3.655 0 004.191 3.02l-.002-.002c3.063-.631 4.6-2.495 6.034-4.174a26.739 26.739 0 003.094-4.997 3.652 3.652 0 00-6.605-3.113c-.429.922-1.302 2.439-2.206 3.566-.447.567-.907 1.035-1.235 1.292a2.065 2.065 0 01-.346.234l-.004.002a3.651 3.651 0 00-2.921 4.172zm13.107-25.243a3.651 3.651 0 003.787-6.245c-.506-.318-.886-.776-1.249-1.898-.348-1.092-.508-2.698-.502-4.447-.006-2.506.297-5.212.308-7.629a3.654 3.654 0 00-7.305 0c.008 1.758-.301 4.62-.307 7.629.006 2.129.145 4.373.828 6.606.664 2.203 2.039 4.538 4.44 5.984zm-42.572 73.856a3.65 3.65 0 00-4.991 1.321c-.62 1.035-1.368 1.639-2.456 2.121-1.082.469-2.51.712-4.055.707a18.583 18.583 0 01-2.862-.229c-5.009-.783-9.543-1.57-15.25-1.57a3.653 3.653 0 000 7.306c5.015 0 9.02.68 14.12 1.479 1.275.199 2.616.319 3.992.319 2.259-.004 4.64-.322 6.93-1.299 2.281-.962 4.462-2.68 5.892-5.162a3.654 3.654 0 00-1.32-4.993zM73.753 256.975a3.653 3.653 0 00-4.893 1.65c-2.879 5.769-3.6 11.304-3.585 17.294a3.653 3.653 0 007.304 0c.017-5.512.573-9.464 2.825-14.051a3.651 3.651 0 00-1.651-4.893zm70.603-108.561l.058.105a20.415 20.415 0 005.498 6.164c2.213 1.639 4.716 2.84 7.354 3.653l.17.05c2.365.604 4.794.878 7.223.878.332 0 .655-.006.968-.013l.065-.002c2.687-.119 5.349-.543 7.931-1.193a60.332 60.332 0 009.485-3.112 73.018 73.018 0 006.916-3.129 76.816 76.816 0 006.48-3.771l.085-.058a71.59 71.59 0 005.896-4.555 119.901 119.901 0 005.353-4.878c3.594-3.412 6.197-6.978 8.299-10.779 2.162-3.749 3.863-7.91 5.587-12.693l.041-.12c1.436-4.491 2.239-9.371 2.239-14.175 0-.502-.007-.996-.023-1.482l-.011-.192c-.445-5.203-1.902-10.093-4.691-14.062l-.065-.089c-2.788-3.725-6.58-6.62-11.153-7.949a22.47 22.47 0 00-6.319-.884c-2.757 0-5.64.466-8.607 1.404-3.177 1.003-6.297 2.013-9.343 3.173a70.015 70.015 0 00-8.855 4.176 71.349 71.349 0 00-8.544 5.658c-2.918 2.122-5.798 4.531-8.553 7.089-2.813 2.614-5.406 5.428-7.689 8.463a62.618 62.618 0 00-5.945 9.597h.002a37.868 37.868 0 00-2.805 7.291c-.665 2.463-1.064 4.963-1.358 7.658a26.733 26.733 0 00-.164 2.919c-.002 2.43.357 4.67.943 6.745.85 2.936 2.132 5.507 3.532 8.113zm68.308-40.915a91.446 91.446 0 002.139-4.285 52.031 52.031 0 001.794-4.367c.028.251.063.499.086.755.012.397.019.793.019 1.184.002 3.961-.675 8.135-1.873 11.883-1.648 4.582-3.205 8.315-5.05 11.512-1.852 3.334-3.932 6.18-6.993 9.098a110.934 110.934 0 01-5.043 4.597 64.45 64.45 0 01-5.259 4.071 69.784 69.784 0 01-5.818 3.384 66.094 66.094 0 01-6.238 2.819l-.096.037a53.065 53.065 0 01-8.447 2.777c-2.191.551-4.366.891-6.486.986-.258.006-.504.012-.74.012-1.846 0-3.632-.206-5.314-.627a17.699 17.699 0 01-4.139-1.885c.937.11 1.886.166 2.841.166h.029c.974 0 1.95-.056 2.931-.162l.078-.011c2.975-.388 5.913-1.185 8.743-2.315 2.672-1.095 5.263-2.151 7.773-3.237 3.687-1.658 7.233-3.514 10.654-5.842 3.382-2.3 6.636-4.967 9.655-8.126a63.2 63.2 0 005.735-6.674 59.347 59.347 0 004.768-7.577 83.483 83.483 0 002.199-4.075c.683-1.321 1.375-2.7 2.052-4.098zm-65.36 23.925c.27-2.466.617-4.571 1.15-6.545.537-1.988 1.256-3.88 2.28-5.913l-3.259-1.643 3.266 1.631a55.078 55.078 0 015.25-8.476c1.987-2.642 4.282-5.143 6.821-7.498 2.582-2.401 5.268-4.643 7.921-6.568l.084-.063a64.03 64.03 0 017.697-5.099 62.604 62.604 0 017.91-3.733c2.778-1.059 5.766-2.029 8.909-3.021 2.343-.74 4.475-1.064 6.409-1.064.554 0 1.086.035 1.609.088.414.473.942.835 1.536 1.046 1.448.939 2.6 1.911 3.44 2.859a11.588 11.588 0 011.728 2.685c.152.759.225 1.527.227 2.315 0 1.253-.188 2.57-.555 3.953a43.805 43.805 0 01-1.549 3.762 83.04 83.04 0 01-2.013 4.028l-.064.126a170.014 170.014 0 01-1.995 3.983 76.683 76.683 0 01-2.046 3.79l-.061.114a52.237 52.237 0 01-4.214 6.71 56.02 56.02 0 01-5.111 5.94c-2.671 2.794-5.514 5.128-8.528 7.18-2.969 2.022-6.115 3.678-9.492 5.199-2.367 1.022-4.917 2.064-7.564 3.148-2.254.901-4.582 1.529-6.872 1.834-.737.082-1.45.121-2.142.121a16.38 16.38 0 01-3.895-.453c-.774-.144-3.232-1.217-4.751-2.371-.645-.485-1.22-1.041-1.5-1.405l-.028-.035a3.644 3.644 0 00-.574-2.326 17.049 17.049 0 01-.142-2.167c0-.669.036-1.375.118-2.132zm-21.551 27.21a3.655 3.655 0 004.688-2.165 3.653 3.653 0 00-2.165-4.688c-1.327-.502-1.623-.896-1.735-1.056-.106-.165-.231-.452-.235-1.305-.028-1.241.405-3.323.428-5.886-.002-.057 0-.125-.002-.202a3.65 3.65 0 00-3.684-3.617 3.65 3.65 0 00-3.618 3.683v.136c.021 1.58-.401 3.518-.427 5.886-.006 1.566.253 3.513 1.429 5.305 1.169 1.799 3.053 3.086 5.321 3.909zm33.874-31.845a3.65 3.65 0 004.933-1.528c1.447-2.825 1.886-5.334 2.574-6.759a3.654 3.654 0 00-1.837-4.827 3.65 3.65 0 00-4.825 1.837c-1.13 2.617-1.536 4.832-2.373 6.342a3.653 3.653 0 001.528 4.935z"/></g></svg>