<svg xmlns="http://www.w3.org/2000/svg" xmlns:xlink="http://www.w3.org/1999/xlink" width="371" height="355" viewBox="0 0 371 355"><defs><filter id="b" width="107.9%" height="107.9%" x="-3.9%" y="-3.9%" filterUnits="objectBoundingBox"><feOffset dy="1" in="SourceAlpha" result="shadowOffsetOuter1"/><feGaussianBlur in="shadowOffsetOuter1" result="shadowBlurOuter1" stdDeviation="3"/><feColorMatrix in="shadowBlurOuter1" result="shadowMatrixOuter1" values="0 0 0 0 0 0 0 0 0 0 0 0 0 0 0 0 0 0 0.139887456 0"/><feMerge><feMergeNode in="shadowMatrixOuter1"/><feMergeNode in="SourceGraphic"/></feMerge></filter><filter id="e" width="103.9%" height="109.4%" x="-2%" y="-4.7%" filterUnits="objectBoundingBox"><feOffset dx="7" dy="1" in="SourceAlpha" result="shadowOffsetOuter1"/><feColorMatrix in="shadowOffsetOuter1" result="shadowMatrixOuter1" values="0 0 0 0 0 0 0 0 0 0 0 0 0 0 0 0 0 0 0.0343913899 0"/><feMerge><feMergeNode in="shadowMatrixOuter1"/><feMergeNode in="SourceGraphic"/></feMerge></filter><pattern id="c" width="18.633" height="18.633" x="-18.633" y="-18.633" patternUnits="userSpaceOnUse"><use transform="scale(.3882)" xlink:href="#a"/></pattern><path id="d" d="M0 0h343v343H0z"/></defs><g fill="none" fill-rule="evenodd"><g filter="url(#b)" transform="translate(14 5)"><path fill="#FFF" d="M0 0h343v343H0z"/><use fill="url(#c)" xlink:href="#d"/><use fill="#FF4949" style="mix-blend-mode:lighten" xlink:href="#d"/><path stroke="#FFF" stroke-linejoin="square" stroke-width="14.7" d="M7.35 7.35h328.3v328.3H7.35z"/><path fill="#FFF" d="M24.5 24.5h294v294h-294z"/></g><g fill="#FF4949" filter="url(#e)" font-family="FrenchFries-Regular, French Fries" transform="translate(-258.833 11.932)"><text font-size="130.592" transform="rotate(-10 290.444 144.452)"><tspan x="258.58" y="179.048">S</tspan></text><text font-size="159.544" transform="rotate(2 358.82 129.668)"><tspan x="325.954" y="193.264">L</tspan></text><text font-size="128.744" transform="rotate(-7 396.396 129.668)"><tspan x="379.917" y="162.264">i</tspan></text><text font-size="134.904" transform="rotate(10 453.377 147.528)"><tspan x="420.932" y="201.528">c</tspan></text><text font-size="159.544" transform="rotate(-10 514.705 127.413)"><tspan x="474.021" y="191.413">k</tspan></text><text font-size="134.904" transform="rotate(20 549.781 136.44)"><tspan x="539.798" y="190.44">‘</tspan></text><text font-size="141.064" transform="rotate(17 603.43 112.845)"><tspan x="574.442" y="169.345">s</tspan></text></g><text fill="#000" font-family="FrenchFries-Regular, French Fries" font-size="55.3" letter-spacing="15.848" transform="translate(-259 5)"><tspan x="325.843" y="275.938">SLICES</tspan></text><text fill="#000" font-family="FrenchFries-Regular, French Fries" font-size="13.3" letter-spacing="3.812" transform="translate(-259 5)"><tspan x="408.575" y="66.738">EST </tspan> <tspan x="446.471" y="66.738" letter-spacing="1.518">1994</tspan></text></g></svg>